STARTFONT 2.1
COMMENT 
COMMENT Converted from OpenType font "LiberationSansNarrow-Bold.ttf" by "otf2bdf 3.0".
COMMENT 
FONT -FreeType-Liberation Sans Narrow-Bold-R-Normal--19-140-100-100-P-88-ISO10646-1
SIZE 14 100 100
FONTBOUNDINGBOX 22 26 -3 -6
STARTPROPERTIES 20
FOUNDRY "FreeType"
FAMILY_NAME "Liberation Sans Narrow"
WEIGHT_NAME "Bold"
SLANT "R"
SETWIDTH_NAME "Normal"
ADD_STYLE_NAME ""
PIXEL_SIZE 19
POINT_SIZE 140
RESOLUTION_X 100
RESOLUTION_Y 100
SPACING "P"
AVERAGE_WIDTH 88
CHARSET_REGISTRY "ISO10646"
CHARSET_ENCODING "1"
FONT_ASCENT 17
FONT_DESCENT 4
COPYRIGHT "Copyright 2010 Oracle and/or its affiliates"
_OTF_FONTFILE "LiberationSansNarrow-Bold.ttf"
_OTF_PSNAME "LiberationSansNarrow-Bold"
_GBDFED_INFO "Edited with gbdfed 1.6."
ENDPROPERTIES
CHARS 662
STARTCHAR 0020
ENCODING 32
SWIDTH 360 0
DWIDTH 7 0
BBX 0 0 0 0
BITMAP
ENDCHAR
STARTCHAR 0021
ENCODING 33
SWIDTH 257 0
DWIDTH 5 0
BBX 3 13 1 0
BITMAP
E0
60
60
60
60
60
60
40
40
00
E0
E0
E0
ENDCHAR
STARTCHAR 0022
ENCODING 34
SWIDTH 360 0
DWIDTH 7 0
BBX 5 5 1 8
BITMAP
D8
D8
D8
D8
D8
ENDCHAR
STARTCHAR 0023
ENCODING 35
SWIDTH 462 0
DWIDTH 9 0
BBX 8 12 0 0
BITMAP
11
12
12
7F
22
26
24
FF
64
44
44
4C
ENDCHAR
STARTCHAR 0024
ENCODING 36
SWIDTH 462 0
DWIDTH 9 0
BBX 8 15 0 -1
BITMAP
08
3E
7F
6B
6B
68
78
3E
0F
0B
CB
6B
7F
3E
08
ENDCHAR
STARTCHAR 0025
ENCODING 37
SWIDTH 720 0
DWIDTH 14 0
BBX 13 13 0 0
BITMAP
7860
4840
CCC0
CC80
CD80
4D70
4BD8
3AC8
06C8
04C8
0CC8
18D8
1070
ENDCHAR
STARTCHAR 0026
ENCODING 38
SWIDTH 565 0
DWIDTH 11 0
BBX 10 13 1 0
BITMAP
1C00
3E00
3600
2200
3600
3C00
7100
F980
CD00
CF00
C700
FFC0
79C0
ENDCHAR
STARTCHAR 0027
ENCODING 39
SWIDTH 205 0
DWIDTH 4 0
BBX 2 5 1 8
BITMAP
C0
C0
C0
C0
C0
ENDCHAR
STARTCHAR 0028
ENCODING 40
SWIDTH 257 0
DWIDTH 5 0
BBX 4 18 1 -4
BITMAP
30
60
60
60
C0
C0
C0
C0
C0
C0
C0
C0
C0
C0
60
60
60
30
ENDCHAR
STARTCHAR 0029
ENCODING 41
SWIDTH 257 0
DWIDTH 5 0
BBX 4 18 0 -4
BITMAP
C0
60
60
30
30
30
30
30
30
30
30
30
30
30
30
60
60
C0
ENDCHAR
STARTCHAR 002A
ENCODING 42
SWIDTH 308 0
DWIDTH 6 0
BBX 6 7 0 6
BITMAP
30
30
FC
FC
38
78
48
ENDCHAR
STARTCHAR 002B
ENCODING 43
SWIDTH 462 0
DWIDTH 9 0
BBX 7 8 1 2
BITMAP
10
10
10
FE
FE
10
10
10
ENDCHAR
STARTCHAR 002C
ENCODING 44
SWIDTH 205 0
DWIDTH 4 0
BBX 2 6 1 -3
BITMAP
C0
C0
C0
40
40
C0
ENDCHAR
STARTCHAR 002D
ENCODING 45
SWIDTH 257 0
DWIDTH 5 0
BBX 4 2 1 4
BITMAP
F0
F0
ENDCHAR
STARTCHAR 002E
ENCODING 46
SWIDTH 205 0
DWIDTH 4 0
BBX 2 3 1 0
BITMAP
C0
C0
C0
ENDCHAR
STARTCHAR 002F
ENCODING 47
SWIDTH 205 0
DWIDTH 4 0
BBX 4 14 0 0
BITMAP
30
30
30
30
30
60
60
60
60
60
60
40
C0
C0
ENDCHAR
STARTCHAR 0030
ENCODING 48
SWIDTH 462 0
DWIDTH 9 0
BBX 7 13 1 0
BITMAP
38
7C
EE
C6
C6
C6
C6
C6
C6
C6
EE
7C
38
ENDCHAR
STARTCHAR 0031
ENCODING 49
SWIDTH 462 0
DWIDTH 9 0
BBX 5 13 2 0
BITMAP
18
38
F8
F8
18
18
18
18
18
18
18
18
18
ENDCHAR
STARTCHAR 0032
ENCODING 50
SWIDTH 462 0
DWIDTH 9 0
BBX 7 13 1 0
BITMAP
38
7C
EE
C6
06
0E
1C
38
70
E0
C0
FE
FE
ENDCHAR
STARTCHAR 0033
ENCODING 51
SWIDTH 462 0
DWIDTH 9 0
BBX 7 13 1 0
BITMAP
38
7C
EE
C6
0E
3C
3C
0E
06
C6
EE
7C
38
ENDCHAR
STARTCHAR 0034
ENCODING 52
SWIDTH 462 0
DWIDTH 9 0
BBX 9 13 0 0
BITMAP
0E00
0E00
1E00
1E00
3600
3600
6600
6600
FF80
FF80
0600
0600
0600
ENDCHAR
STARTCHAR 0035
ENCODING 53
SWIDTH 462 0
DWIDTH 9 0
BBX 7 13 1 0
BITMAP
FE
FE
C0
C0
FC
FE
CE
06
06
C6
EE
7C
38
ENDCHAR
STARTCHAR 0036
ENCODING 54
SWIDTH 462 0
DWIDTH 9 0
BBX 7 13 1 0
BITMAP
38
7C
EE
C6
C0
F8
FC
EE
C6
C6
EE
7C
38
ENDCHAR
STARTCHAR 0037
ENCODING 55
SWIDTH 462 0
DWIDTH 9 0
BBX 7 13 1 0
BITMAP
FE
FE
06
0C
0C
18
18
30
30
30
70
60
60
ENDCHAR
STARTCHAR 0038
ENCODING 56
SWIDTH 462 0
DWIDTH 9 0
BBX 7 13 1 0
BITMAP
38
7C
EE
C6
C6
EE
7C
EE
C6
C6
EE
7C
38
ENDCHAR
STARTCHAR 0039
ENCODING 57
SWIDTH 462 0
DWIDTH 9 0
BBX 7 13 1 0
BITMAP
38
7C
EE
C6
C6
EE
7E
3E
06
C6
EE
7C
38
ENDCHAR
STARTCHAR 003A
ENCODING 58
SWIDTH 257 0
DWIDTH 5 0
BBX 3 10 1 0
BITMAP
E0
E0
E0
00
00
00
00
E0
E0
E0
ENDCHAR
STARTCHAR 003B
ENCODING 59
SWIDTH 257 0
DWIDTH 5 0
BBX 2 13 2 -3
BITMAP
C0
C0
C0
00
00
00
00
C0
C0
C0
C0
80
80
ENDCHAR
STARTCHAR 003C
ENCODING 60
SWIDTH 462 0
DWIDTH 9 0
BBX 7 9 1 1
BITMAP
02
1E
7C
F0
C0
E0
F8
3E
06
ENDCHAR
STARTCHAR 003D
ENCODING 61
SWIDTH 462 0
DWIDTH 9 0
BBX 7 7 1 3
BITMAP
FE
FE
00
00
00
FE
FE
ENDCHAR
STARTCHAR 003E
ENCODING 62
SWIDTH 462 0
DWIDTH 9 0
BBX 7 9 1 1
BITMAP
C0
F0
7C
1E
06
0E
3E
F8
E0
ENDCHAR
STARTCHAR 003F
ENCODING 63
SWIDTH 514 0
DWIDTH 10 0
BBX 8 13 1 0
BITMAP
3C
7E
E7
C7
06
0E
1C
18
30
00
38
38
38
ENDCHAR
STARTCHAR 0040
ENCODING 64
SWIDTH 771 0
DWIDTH 15 0
BBX 13 16 1 -3
BITMAP
07C0
1830
2010
6748
4CC8
C8C8
98C8
90C8
9088
9098
9990
CEE0
4000
6020
30E0
0F80
ENDCHAR
STARTCHAR 0041
ENCODING 65
SWIDTH 565 0
DWIDTH 11 0
BBX 10 13 1 0
BITMAP
1C00
1C00
1E00
3600
3600
3300
6300
6300
7F00
FF80
C180
C180
C1C0
ENDCHAR
STARTCHAR 0042
ENCODING 66
SWIDTH 565 0
DWIDTH 11 0
BBX 10 13 1 0
BITMAP
FE00
FF80
C380
C180
C380
FF00
FF00
C180
C1C0
C1C0
C180
FF80
FF00
ENDCHAR
STARTCHAR 0043
ENCODING 67
SWIDTH 565 0
DWIDTH 11 0
BBX 10 13 1 0
BITMAP
3E00
7F80
E180
C1C0
C000
C000
C000
C000
C000
E1C0
6180
7F80
1E00
ENDCHAR
STARTCHAR 0044
ENCODING 68
SWIDTH 565 0
DWIDTH 11 0
BBX 10 13 1 0
BITMAP
FE00
FF00
C380
C180
C180
C1C0
C1C0
C1C0
C180
C180
C380
FF00
FE00
ENDCHAR
STARTCHAR 0045
ENCODING 69
SWIDTH 514 0
DWIDTH 10 0
BBX 9 13 1 0
BITMAP
FF00
FF00
C000
C000
C000
FF00
FF00
C000
C000
C000
C000
FF80
FF80
ENDCHAR
STARTCHAR 0046
ENCODING 70
SWIDTH 514 0
DWIDTH 10 0
BBX 8 13 1 0
BITMAP
FF
FF
C0
C0
C0
C0
FF
FF
C0
C0
C0
C0
C0
ENDCHAR
STARTCHAR 0047
ENCODING 71
SWIDTH 617 0
DWIDTH 12 0
BBX 10 13 1 0
BITMAP
1F00
7F80
E1C0
C080
C000
C000
C7C0
C7C0
C0C0
E0C0
61C0
7F80
1F00
ENDCHAR
STARTCHAR 0048
ENCODING 72
SWIDTH 565 0
DWIDTH 11 0
BBX 9 13 1 0
BITMAP
C180
C180
C180
C180
C180
FF80
FF80
C180
C180
C180
C180
C180
C180
ENDCHAR
STARTCHAR 0049
ENCODING 73
SWIDTH 205 0
DWIDTH 4 0
BBX 2 13 1 0
BITMAP
C0
C0
C0
C0
C0
C0
C0
C0
C0
C0
C0
C0
C0
ENDCHAR
STARTCHAR 004A
ENCODING 74
SWIDTH 462 0
DWIDTH 9 0
BBX 8 13 0 0
BITMAP
1F
1F
07
07
07
07
07
07
07
E7
E6
7E
3C
ENDCHAR
STARTCHAR 004B
ENCODING 75
SWIDTH 565 0
DWIDTH 11 0
BBX 10 13 1 0
BITMAP
C180
C300
C700
CE00
DC00
D800
FC00
EC00
C600
C700
C300
C380
C1C0
ENDCHAR
STARTCHAR 004C
ENCODING 76
SWIDTH 514 0
DWIDTH 10 0
BBX 8 13 1 0
BITMAP
C0
C0
C0
C0
C0
C0
C0
C0
C0
C0
C0
FF
FF
ENDCHAR
STARTCHAR 004D
ENCODING 77
SWIDTH 668 0
DWIDTH 13 0
BBX 11 13 1 0
BITMAP
E0E0
E0E0
F1E0
F1E0
F1E0
D960
DB60
DB60
DA60
CA60
CE60
CE60
C460
ENDCHAR
STARTCHAR 004E
ENCODING 78
SWIDTH 565 0
DWIDTH 11 0
BBX 9 13 1 0
BITMAP
E180
E180
F180
F180
D980
D980
CD80
CD80
CF80
C780
C780
C380
C380
ENDCHAR
STARTCHAR 004F
ENCODING 79
SWIDTH 617 0
DWIDTH 12 0
BBX 10 13 1 0
BITMAP
1E00
7F80
61C0
E0C0
C0C0
C0C0
C0C0
C0C0
C0C0
E0C0
61C0
7F80
1E00
ENDCHAR
STARTCHAR 0050
ENCODING 80
SWIDTH 514 0
DWIDTH 10 0
BBX 9 13 1 0
BITMAP
FE00
FF00
C380
C180
C180
C380
FF00
FE00
C000
C000
C000
C000
C000
ENDCHAR
STARTCHAR 0051
ENCODING 81
SWIDTH 617 0
DWIDTH 12 0
BBX 10 17 1 -4
BITMAP
1E00
7F80
61C0
E0C0
C0C0
C0C0
C0C0
C0C0
C0C0
C0C0
E1C0
7F80
3F00
0E00
0600
0780
0380
ENDCHAR
STARTCHAR 0052
ENCODING 82
SWIDTH 565 0
DWIDTH 11 0
BBX 10 13 1 0
BITMAP
FF00
FF80
C180
C180
C180
C180
FF80
FE00
C700
C300
C380
C180
C1C0
ENDCHAR
STARTCHAR 0053
ENCODING 83
SWIDTH 514 0
DWIDTH 10 0
BBX 9 13 1 0
BITMAP
3E00
7F00
C300
C200
E000
FC00
7F00
0700
0380
C180
C380
FF00
3E00
ENDCHAR
STARTCHAR 0054
ENCODING 84
SWIDTH 514 0
DWIDTH 10 0
BBX 9 13 0 0
BITMAP
FF80
FF80
0C00
0C00
0C00
0C00
0C00
0C00
0C00
0C00
0C00
0C00
0C00
ENDCHAR
STARTCHAR 0055
ENCODING 85
SWIDTH 565 0
DWIDTH 11 0
BBX 9 13 1 0
BITMAP
C180
C180
C180
C180
C180
C180
C180
C180
C180
C180
E380
7F00
3E00
ENDCHAR
STARTCHAR 0056
ENCODING 86
SWIDTH 514 0
DWIDTH 10 0
BBX 10 13 0 0
BITMAP
E0C0
60C0
61C0
6180
7180
3180
3300
3300
1B00
1E00
1E00
0E00
0C00
ENDCHAR
STARTCHAR 0057
ENCODING 87
SWIDTH 771 0
DWIDTH 15 0
BBX 15 13 0 0
BITMAP
C38E
E38C
638C
678C
66CC
66DC
66D8
34D8
34D8
3C58
3C70
3C70
1C70
ENDCHAR
STARTCHAR 0058
ENCODING 88
SWIDTH 514 0
DWIDTH 10 0
BBX 10 13 0 0
BITMAP
61C0
7180
3380
3B00
1F00
1E00
0E00
1E00
1B00
3300
7180
6180
E0C0
ENDCHAR
STARTCHAR 0059
ENCODING 89
SWIDTH 514 0
DWIDTH 10 0
BBX 9 13 1 0
BITMAP
C180
C300
6300
6600
7600
3C00
3C00
1800
1800
1800
1800
1800
1800
ENDCHAR
STARTCHAR 005A
ENCODING 90
SWIDTH 514 0
DWIDTH 10 0
BBX 9 13 0 0
BITMAP
7F80
7F80
0300
0700
0600
0C00
1C00
1800
3800
7000
6000
FF80
FF80
ENDCHAR
STARTCHAR 005B
ENCODING 91
SWIDTH 257 0
DWIDTH 5 0
BBX 4 18 1 -4
BITMAP
F0
F0
C0
C0
C0
C0
C0
C0
C0
C0
C0
C0
C0
C0
C0
C0
F0
F0
ENDCHAR
STARTCHAR 005C
ENCODING 92
SWIDTH 205 0
DWIDTH 4 0
BBX 4 14 0 0
BITMAP
C0
C0
40
60
60
60
60
60
60
20
30
30
30
30
ENDCHAR
STARTCHAR 005D
ENCODING 93
SWIDTH 257 0
DWIDTH 5 0
BBX 4 18 0 -4
BITMAP
F0
F0
30
30
30
30
30
30
30
30
30
30
30
30
30
30
F0
F0
ENDCHAR
STARTCHAR 005E
ENCODING 94
SWIDTH 462 0
DWIDTH 9 0
BBX 7 8 1 5
BITMAP
38
28
6C
6C
44
C6
C6
82
ENDCHAR
STARTCHAR 005F
ENCODING 95
SWIDTH 462 0
DWIDTH 9 0
BBX 9 1 0 -2
BITMAP
FF80
ENDCHAR
STARTCHAR 0060
ENCODING 96
SWIDTH 257 0
DWIDTH 5 0
BBX 3 3 1 11
BITMAP
C0
60
20
ENDCHAR
STARTCHAR 0061
ENCODING 97
SWIDTH 462 0
DWIDTH 9 0
BBX 9 10 0 0
BITMAP
3C00
7E00
6700
0700
3F00
6700
E700
E700
7B80
7B80
ENDCHAR
STARTCHAR 0062
ENCODING 98
SWIDTH 514 0
DWIDTH 10 0
BBX 8 14 1 0
BITMAP
C0
C0
C0
C0
DC
FE
E7
C3
C3
C3
C3
E7
FE
DC
ENDCHAR
STARTCHAR 0063
ENCODING 99
SWIDTH 462 0
DWIDTH 9 0
BBX 7 10 1 0
BITMAP
38
7C
C6
C0
C0
C0
C6
C6
FC
38
ENDCHAR
STARTCHAR 0064
ENCODING 100
SWIDTH 514 0
DWIDTH 10 0
BBX 7 14 1 0
BITMAP
06
06
06
06
76
FE
C6
C6
C6
C6
C6
C6
FE
76
ENDCHAR
STARTCHAR 0065
ENCODING 101
SWIDTH 462 0
DWIDTH 9 0
BBX 7 10 1 0
BITMAP
78
FC
C6
FE
FE
C0
C0
C6
7C
38
ENDCHAR
STARTCHAR 0066
ENCODING 102
SWIDTH 257 0
DWIDTH 5 0
BBX 5 14 0 0
BITMAP
38
38
70
70
F8
F8
70
70
70
70
70
70
70
70
ENDCHAR
STARTCHAR 0067
ENCODING 103
SWIDTH 514 0
DWIDTH 10 0
BBX 7 14 1 -4
BITMAP
76
FE
C6
C6
C6
C6
C6
C6
FE
76
06
C6
FE
7C
ENDCHAR
STARTCHAR 0068
ENCODING 104
SWIDTH 514 0
DWIDTH 10 0
BBX 8 14 1 0
BITMAP
C0
C0
C0
C0
DC
DE
E6
C7
C7
C7
C7
C7
C7
C7
ENDCHAR
STARTCHAR 0069
ENCODING 105
SWIDTH 205 0
DWIDTH 4 0
BBX 2 14 1 0
BITMAP
C0
C0
00
00
C0
C0
C0
C0
C0
C0
C0
C0
C0
C0
ENDCHAR
STARTCHAR 006A
ENCODING 106
SWIDTH 205 0
DWIDTH 4 0
BBX 3 18 0 -4
BITMAP
60
60
00
00
60
60
60
60
60
60
60
60
60
60
60
60
E0
C0
ENDCHAR
STARTCHAR 006B
ENCODING 107
SWIDTH 462 0
DWIDTH 9 0
BBX 7 14 1 0
BITMAP
C0
C0
C0
C0
C6
CC
DC
D8
F8
F8
CC
CC
C6
C6
ENDCHAR
STARTCHAR 006C
ENCODING 108
SWIDTH 205 0
DWIDTH 4 0
BBX 2 14 1 0
BITMAP
C0
C0
C0
C0
C0
C0
C0
C0
C0
C0
C0
C0
C0
C0
ENDCHAR
STARTCHAR 006D
ENCODING 109
SWIDTH 720 0
DWIDTH 14 0
BBX 12 10 1 0
BITMAP
DCE0
FFF0
E770
C630
C630
C630
C630
C630
C630
C630
ENDCHAR
STARTCHAR 006E
ENCODING 110
SWIDTH 514 0
DWIDTH 10 0
BBX 8 10 1 0
BITMAP
DC
DE
E6
C7
C7
C7
C7
C7
C7
C7
ENDCHAR
STARTCHAR 006F
ENCODING 111
SWIDTH 514 0
DWIDTH 10 0
BBX 8 10 1 0
BITMAP
3C
7E
E7
C3
C3
C3
C3
E6
7E
3C
ENDCHAR
STARTCHAR 0070
ENCODING 112
SWIDTH 514 0
DWIDTH 10 0
BBX 8 14 1 -4
BITMAP
DC
FE
E7
C3
C3
C3
C3
E7
FE
DC
C0
C0
C0
C0
ENDCHAR
STARTCHAR 0071
ENCODING 113
SWIDTH 514 0
DWIDTH 10 0
BBX 7 14 1 -4
BITMAP
76
FE
C6
C6
C6
C6
C6
C6
FE
76
06
06
06
06
ENDCHAR
STARTCHAR 0072
ENCODING 114
SWIDTH 308 0
DWIDTH 6 0
BBX 5 10 1 0
BITMAP
D8
F8
E0
C0
C0
C0
C0
C0
C0
C0
ENDCHAR
STARTCHAR 0073
ENCODING 115
SWIDTH 462 0
DWIDTH 9 0
BBX 7 10 1 0
BITMAP
78
FC
C6
E0
FC
3E
06
C6
FE
7C
ENDCHAR
STARTCHAR 0074
ENCODING 116
SWIDTH 257 0
DWIDTH 5 0
BBX 5 12 0 0
BITMAP
20
20
F8
F8
60
60
60
60
60
60
78
38
ENDCHAR
STARTCHAR 0075
ENCODING 117
SWIDTH 514 0
DWIDTH 10 0
BBX 7 10 1 0
BITMAP
C6
C6
C6
C6
C6
C6
C6
E6
FE
76
ENDCHAR
STARTCHAR 0076
ENCODING 118
SWIDTH 462 0
DWIDTH 9 0
BBX 8 10 0 0
BITMAP
C3
63
63
67
66
36
36
3C
1C
1C
ENDCHAR
STARTCHAR 0077
ENCODING 119
SWIDTH 617 0
DWIDTH 12 0
BBX 12 10 0 0
BITMAP
C630
C730
CF30
6F20
6D60
6960
69E0
39E0
39C0
30C0
ENDCHAR
STARTCHAR 0078
ENCODING 120
SWIDTH 462 0
DWIDTH 9 0
BBX 8 10 0 0
BITMAP
63
67
36
3C
1C
1C
3C
36
67
E3
ENDCHAR
STARTCHAR 0079
ENCODING 121
SWIDTH 462 0
DWIDTH 9 0
BBX 8 14 0 -4
BITMAP
E3
63
63
66
36
36
36
1C
1C
1C
18
18
78
70
ENDCHAR
STARTCHAR 007A
ENCODING 122
SWIDTH 411 0
DWIDTH 8 0
BBX 6 10 1 0
BITMAP
FC
FC
1C
18
30
70
60
C0
FC
FC
ENDCHAR
STARTCHAR 007B
ENCODING 123
SWIDTH 308 0
DWIDTH 6 0
BBX 6 18 0 -4
BITMAP
1C
3C
30
30
30
30
30
30
E0
E0
30
30
30
30
30
30
3C
1C
ENDCHAR
STARTCHAR 007C
ENCODING 124
SWIDTH 205 0
DWIDTH 4 0
BBX 2 18 1 -4
BITMAP
C0
C0
C0
C0
C0
C0
C0
C0
C0
C0
C0
C0
C0
C0
C0
C0
C0
C0
ENDCHAR
STARTCHAR 007D
ENCODING 125
SWIDTH 308 0
DWIDTH 6 0
BBX 6 18 0 -4
BITMAP
E0
F0
30
30
30
30
30
38
1C
1C
38
30
30
30
30
30
F0
E0
ENDCHAR
STARTCHAR 007E
ENCODING 126
SWIDTH 462 0
DWIDTH 9 0
BBX 8 3 1 5
BITMAP
F1
FF
0E
ENDCHAR
STARTCHAR 00A0
ENCODING 160
SWIDTH 205 0
DWIDTH 4 0
BBX 0 0 0 0
BITMAP
ENDCHAR
STARTCHAR 00A1
ENCODING 161
SWIDTH 257 0
DWIDTH 5 0
BBX 3 13 1 -3
BITMAP
60
60
60
00
40
60
60
60
60
60
60
60
E0
ENDCHAR
STARTCHAR 00A2
ENCODING 162
SWIDTH 462 0
DWIDTH 9 0
BBX 8 13 0 0
BITMAP
08
08
3E
7F
6B
E8
E8
E8
6B
6B
3E
1C
08
ENDCHAR
STARTCHAR 00A3
ENCODING 163
SWIDTH 462 0
DWIDTH 9 0
BBX 8 13 0 0
BITMAP
1E
3E
33
30
20
20
FC
FC
20
20
63
FF
FE
ENDCHAR
STARTCHAR 00A4
ENCODING 164
SWIDTH 462 0
DWIDTH 9 0
BBX 8 9 0 2
BITMAP
42
7F
7E
66
63
63
66
FF
5E
ENDCHAR
STARTCHAR 00A5
ENCODING 165
SWIDTH 462 0
DWIDTH 9 0
BBX 8 13 0 0
BITMAP
C3
63
67
76
36
3C
1C
7F
18
7F
18
18
18
ENDCHAR
STARTCHAR 00A6
ENCODING 166
SWIDTH 205 0
DWIDTH 4 0
BBX 2 17 1 -4
BITMAP
C0
C0
C0
C0
C0
C0
C0
00
00
00
C0
C0
C0
C0
C0
C0
C0
ENDCHAR
STARTCHAR 00A7
ENCODING 167
SWIDTH 462 0
DWIDTH 9 0
BBX 7 15 1 -2
BITMAP
78
FC
C6
C0
F0
7C
C6
C6
E6
7C
1E
06
C6
FC
78
ENDCHAR
STARTCHAR 00A8
ENCODING 168
SWIDTH 257 0
DWIDTH 5 0
BBX 5 2 0 11
BITMAP
D8
D8
ENDCHAR
STARTCHAR 00A9
ENCODING 169
SWIDTH 565 0
DWIDTH 11 0
BBX 11 13 0 0
BITMAP
0F00
3080
6040
4F20
9920
9020
9020
9020
9920
4F20
6040
3080
0F00
ENDCHAR
STARTCHAR 00AA
ENCODING 170
SWIDTH 308 0
DWIDTH 6 0
BBX 6 6 0 7
BITMAP
70
48
78
C8
D8
6C
ENDCHAR
STARTCHAR 00AB
ENCODING 171
SWIDTH 462 0
DWIDTH 9 0
BBX 7 8 1 1
BITMAP
26
6C
CC
D8
D8
CC
6C
26
ENDCHAR
STARTCHAR 00AC
ENCODING 172
SWIDTH 462 0
DWIDTH 9 0
BBX 7 6 1 1
BITMAP
FE
FE
02
02
02
02
ENDCHAR
STARTCHAR 00AD
ENCODING 173
SWIDTH 257 0
DWIDTH 5 0
BBX 4 2 1 4
BITMAP
F0
F0
ENDCHAR
STARTCHAR 00AE
ENCODING 174
SWIDTH 565 0
DWIDTH 11 0
BBX 11 13 0 0
BITMAP
0F00
3080
6040
5F20
9920
9920
9F20
9A20
9B20
5920
6040
3080
0F00
ENDCHAR
STARTCHAR 00AF
ENCODING 175
SWIDTH 257 0
DWIDTH 5 0
BBX 5 1 0 13
BITMAP
F8
ENDCHAR
STARTCHAR 00B0
ENCODING 176
SWIDTH 411 0
DWIDTH 8 0
BBX 6 6 1 7
BITMAP
70
C8
8C
8C
C8
70
ENDCHAR
STARTCHAR 00B1
ENCODING 177
SWIDTH 514 0
DWIDTH 10 0
BBX 10 12 0 0
BITMAP
0C00
0C00
0C00
FFC0
FFC0
0C00
0C00
0C00
0000
0000
FFC0
FFC0
ENDCHAR
STARTCHAR 00B2
ENCODING 178
SWIDTH 257 0
DWIDTH 5 0
BBX 5 7 0 6
BITMAP
70
58
18
30
60
40
F8
ENDCHAR
STARTCHAR 00B3
ENCODING 179
SWIDTH 257 0
DWIDTH 5 0
BBX 5 7 0 6
BITMAP
70
58
18
30
18
D8
70
ENDCHAR
STARTCHAR 00B4
ENCODING 180
SWIDTH 257 0
DWIDTH 5 0
BBX 3 3 1 11
BITMAP
60
40
80
ENDCHAR
STARTCHAR 00B5
ENCODING 181
SWIDTH 514 0
DWIDTH 10 0
BBX 8 14 1 -4
BITMAP
C6
C6
C6
C6
C6
C6
C6
E6
FE
FF
C0
C0
C0
C0
ENDCHAR
STARTCHAR 00B6
ENCODING 182
SWIDTH 462 0
DWIDTH 9 0
BBX 7 15 1 -2
BITMAP
7E
E4
E4
E4
E4
E4
24
24
24
24
24
24
24
24
24
ENDCHAR
STARTCHAR 00B7
ENCODING 183
SWIDTH 257 0
DWIDTH 5 0
BBX 3 3 1 5
BITMAP
E0
E0
E0
ENDCHAR
STARTCHAR 00B8
ENCODING 184
SWIDTH 257 0
DWIDTH 5 0
BBX 3 4 1 -4
BITMAP
C0
E0
60
C0
ENDCHAR
STARTCHAR 00B9
ENCODING 185
SWIDTH 257 0
DWIDTH 5 0
BBX 4 7 1 6
BITMAP
C0
C0
40
40
40
40
F0
ENDCHAR
STARTCHAR 00BA
ENCODING 186
SWIDTH 308 0
DWIDTH 6 0
BBX 5 6 0 7
BITMAP
70
48
C8
C8
48
70
ENDCHAR
STARTCHAR 00BB
ENCODING 187
SWIDTH 462 0
DWIDTH 9 0
BBX 7 8 1 1
BITMAP
D8
CC
6C
66
66
6C
CC
D8
ENDCHAR
STARTCHAR 00BC
ENCODING 188
SWIDTH 668 0
DWIDTH 13 0
BBX 13 13 1 0
BITMAP
6060
E040
60C0
6080
6180
6100
F330
0230
0650
0490
0CF8
0810
1800
ENDCHAR
STARTCHAR 00BD
ENCODING 189
SWIDTH 668 0
DWIDTH 13 0
BBX 13 13 1 0
BITMAP
6060
E040
60C0
6080
6180
6100
F370
0258
0618
0C30
0860
1840
10F8
ENDCHAR
STARTCHAR 00BE
ENCODING 190
SWIDTH 668 0
DWIDTH 13 0
BBX 13 13 1 0
BITMAP
7060
D040
10C0
6080
1180
9100
7330
0230
0650
0490
0CF8
0810
1800
ENDCHAR
STARTCHAR 00BF
ENCODING 191
SWIDTH 514 0
DWIDTH 10 0
BBX 8 13 1 -3
BITMAP
18
18
18
00
18
18
30
60
C0
C3
C6
FE
3C
ENDCHAR
STARTCHAR 00C0
ENCODING 192
SWIDTH 565 0
DWIDTH 11 0
BBX 10 17 1 0
BITMAP
1800
0C00
0600
0000
1C00
1C00
1E00
3600
3600
3300
6300
6300
7F00
FF80
C180
C180
C1C0
ENDCHAR
STARTCHAR 00C1
ENCODING 193
SWIDTH 565 0
DWIDTH 11 0
BBX 10 17 1 0
BITMAP
0300
0600
0C00
0000
1C00
1C00
1E00
3600
3600
3300
6300
6300
7F00
FF80
C180
C180
C1C0
ENDCHAR
STARTCHAR 00C2
ENCODING 194
SWIDTH 565 0
DWIDTH 11 0
BBX 10 17 1 0
BITMAP
0E00
1E00
1300
0000
1C00
1C00
1E00
3600
3600
3300
6300
6300
7F00
FF80
C180
C180
C1C0
ENDCHAR
STARTCHAR 00C3
ENCODING 195
SWIDTH 565 0
DWIDTH 11 0
BBX 10 17 1 0
BITMAP
1900
3F00
2700
0000
1C00
1C00
1E00
3600
3600
3300
6300
6300
7F00
FF80
C180
C180
C1C0
ENDCHAR
STARTCHAR 00C4
ENCODING 196
SWIDTH 565 0
DWIDTH 11 0
BBX 10 16 1 0
BITMAP
1300
1300
0000
1C00
1C00
1E00
3600
3600
3300
6300
6300
7F00
FF80
C180
C180
C1C0
ENDCHAR
STARTCHAR 00C5
ENCODING 197
SWIDTH 565 0
DWIDTH 11 0
BBX 10 17 1 0
BITMAP
0E00
1A00
0A00
0E00
1C00
1C00
1E00
3600
3600
3300
6300
6300
7F00
FF80
C180
C180
C1C0
ENDCHAR
STARTCHAR 00C6
ENCODING 198
SWIDTH 822 0
DWIDTH 16 0
BBX 15 13 0 0
BITMAP
07FE
07FE
0D80
0D80
0D80
19FC
19FC
3980
3F80
7F80
6180
61FE
E1FE
ENDCHAR
STARTCHAR 00C7
ENCODING 199
SWIDTH 565 0
DWIDTH 11 0
BBX 10 17 1 -4
BITMAP
3E00
7F80
E180
C1C0
C000
C000
C000
C000
C000
E1C0
6180
7F80
1E00
0400
0600
0200
0E00
ENDCHAR
STARTCHAR 00C8
ENCODING 200
SWIDTH 514 0
DWIDTH 10 0
BBX 9 17 1 0
BITMAP
1800
0C00
0400
0000
FF00
FF00
C000
C000
C000
FF00
FF00
C000
C000
C000
C000
FF80
FF80
ENDCHAR
STARTCHAR 00C9
ENCODING 201
SWIDTH 514 0
DWIDTH 10 0
BBX 9 17 1 0
BITMAP
0600
0C00
0800
0000
FF00
FF00
C000
C000
C000
FF00
FF00
C000
C000
C000
C000
FF80
FF80
ENDCHAR
STARTCHAR 00CA
ENCODING 202
SWIDTH 514 0
DWIDTH 10 0
BBX 9 17 1 0
BITMAP
0C00
1E00
3300
0000
FF00
FF00
C000
C000
C000
FF00
FF00
C000
C000
C000
C000
FF80
FF80
ENDCHAR
STARTCHAR 00CB
ENCODING 203
SWIDTH 514 0
DWIDTH 10 0
BBX 9 16 1 0
BITMAP
1300
1300
0000
FF00
FF00
C000
C000
C000
FF00
FF00
C000
C000
C000
C000
FF80
FF80
ENDCHAR
STARTCHAR 00CC
ENCODING 204
SWIDTH 205 0
DWIDTH 4 0
BBX 3 17 0 0
BITMAP
C0
60
20
00
60
60
60
60
60
60
60
60
60
60
60
60
60
ENDCHAR
STARTCHAR 00CD
ENCODING 205
SWIDTH 205 0
DWIDTH 4 0
BBX 4 17 1 0
BITMAP
70
60
C0
00
C0
C0
C0
C0
C0
C0
C0
C0
C0
C0
C0
C0
C0
ENDCHAR
STARTCHAR 00CE
ENCODING 206
SWIDTH 205 0
DWIDTH 4 0
BBX 6 17 -1 0
BITMAP
30
78
CC
00
30
30
30
30
30
30
30
30
30
30
30
30
30
ENDCHAR
STARTCHAR 00CF
ENCODING 207
SWIDTH 205 0
DWIDTH 4 0
BBX 5 16 0 0
BITMAP
98
98
00
60
60
60
60
60
60
60
60
60
60
60
60
60
ENDCHAR
STARTCHAR 00D0
ENCODING 208
SWIDTH 565 0
DWIDTH 11 0
BBX 11 13 0 0
BITMAP
7F00
7F80
61C0
60C0
60C0
FCE0
FCE0
60C0
60C0
60C0
61C0
7F80
7F00
ENDCHAR
STARTCHAR 00D1
ENCODING 209
SWIDTH 565 0
DWIDTH 11 0
BBX 9 17 1 0
BITMAP
1900
3F00
2700
0000
E180
E180
F180
F180
D980
D980
CD80
CD80
CF80
C780
C780
C380
C380
ENDCHAR
STARTCHAR 00D2
ENCODING 210
SWIDTH 617 0
DWIDTH 12 0
BBX 10 17 1 0
BITMAP
0C00
0600
0300
0000
1E00
7F80
61C0
E0C0
C0C0
C0C0
C0C0
C0C0
C0C0
E0C0
61C0
7F80
1E00
ENDCHAR
STARTCHAR 00D3
ENCODING 211
SWIDTH 617 0
DWIDTH 12 0
BBX 10 17 1 0
BITMAP
0300
0600
0400
0000
1E00
7F80
61C0
E0C0
C0C0
C0C0
C0C0
C0C0
C0C0
E0C0
61C0
7F80
1E00
ENDCHAR
STARTCHAR 00D4
ENCODING 212
SWIDTH 617 0
DWIDTH 12 0
BBX 10 17 1 0
BITMAP
0600
0F00
1900
0000
1E00
7F80
61C0
E0C0
C0C0
C0C0
C0C0
C0C0
C0C0
E0C0
61C0
7F80
1E00
ENDCHAR
STARTCHAR 00D5
ENCODING 213
SWIDTH 617 0
DWIDTH 12 0
BBX 10 17 1 0
BITMAP
1C80
1F80
1300
0000
1E00
7F80
61C0
E0C0
C0C0
C0C0
C0C0
C0C0
C0C0
E0C0
61C0
7F80
1E00
ENDCHAR
STARTCHAR 00D6
ENCODING 214
SWIDTH 617 0
DWIDTH 12 0
BBX 10 16 1 0
BITMAP
1900
1900
0000
1E00
7F80
61C0
E0C0
C0C0
C0C0
C0C0
C0C0
C0C0
E0C0
61C0
7F80
1E00
ENDCHAR
STARTCHAR 00D7
ENCODING 215
SWIDTH 462 0
DWIDTH 9 0
BBX 7 9 1 2
BITMAP
82
C6
6E
7C
38
3C
6E
C6
82
ENDCHAR
STARTCHAR 00D8
ENCODING 216
SWIDTH 617 0
DWIDTH 12 0
BBX 10 15 1 -1
BITMAP
00C0
1F80
7F80
61C0
E2C0
C6C0
C4C0
CCC0
C8C0
D8C0
F0C0
61C0
7F80
7E00
C000
ENDCHAR
STARTCHAR 00D9
ENCODING 217
SWIDTH 565 0
DWIDTH 11 0
BBX 9 17 1 0
BITMAP
1800
0C00
0400
0000
C180
C180
C180
C180
C180
C180
C180
C180
C180
C180
E380
7F00
3E00
ENDCHAR
STARTCHAR 00DA
ENCODING 218
SWIDTH 565 0
DWIDTH 11 0
BBX 9 17 1 0
BITMAP
0300
0600
0C00
0000
C180
C180
C180
C180
C180
C180
C180
C180
C180
C180
E380
7F00
3E00
ENDCHAR
STARTCHAR 00DB
ENCODING 219
SWIDTH 565 0
DWIDTH 11 0
BBX 9 17 1 0
BITMAP
0E00
1E00
1300
0000
C180
C180
C180
C180
C180
C180
C180
C180
C180
C180
E380
7F00
3E00
ENDCHAR
STARTCHAR 00DC
ENCODING 220
SWIDTH 565 0
DWIDTH 11 0
BBX 9 16 1 0
BITMAP
1300
1300
0000
C180
C180
C180
C180
C180
C180
C180
C180
C180
C180
E380
7F00
3E00
ENDCHAR
STARTCHAR 00DD
ENCODING 221
SWIDTH 514 0
DWIDTH 10 0
BBX 9 17 1 0
BITMAP
0700
0600
0C00
0000
C180
C300
6300
6600
7600
3C00
3C00
1800
1800
1800
1800
1800
1800
ENDCHAR
STARTCHAR 00DE
ENCODING 222
SWIDTH 514 0
DWIDTH 10 0
BBX 9 13 1 0
BITMAP
C000
C000
FE00
FF00
C380
C180
C180
C380
FF00
FE00
C000
C000
C000
ENDCHAR
STARTCHAR 00DF
ENCODING 223
SWIDTH 514 0
DWIDTH 10 0
BBX 8 14 1 0
BITMAP
3C
7E
E6
C6
C6
CC
CC
CC
CE
C7
C3
C3
DF
DE
ENDCHAR
STARTCHAR 00E0
ENCODING 224
SWIDTH 462 0
DWIDTH 9 0
BBX 9 14 0 0
BITMAP
3000
1800
0C00
0000
3C00
7E00
6600
0700
3F00
6700
E700
E700
7B80
7380
ENDCHAR
STARTCHAR 00E1
ENCODING 225
SWIDTH 462 0
DWIDTH 9 0
BBX 9 14 0 0
BITMAP
0600
0C00
1800
0000
3C00
7E00
6600
0700
3F00
6700
E700
E700
7B80
7380
ENDCHAR
STARTCHAR 00E2
ENCODING 226
SWIDTH 462 0
DWIDTH 9 0
BBX 9 14 0 0
BITMAP
1C00
1E00
3200
0000
3C00
7E00
6600
0700
3F00
6700
E700
E700
7B80
7380
ENDCHAR
STARTCHAR 00E3
ENCODING 227
SWIDTH 462 0
DWIDTH 9 0
BBX 9 14 0 0
BITMAP
3A00
3E00
2E00
0000
3C00
7E00
6600
0700
3F00
6700
E700
E700
7B80
7380
ENDCHAR
STARTCHAR 00E4
ENCODING 228
SWIDTH 462 0
DWIDTH 9 0
BBX 9 13 0 0
BITMAP
3600
3600
0000
3C00
7E00
6600
0700
3F00
6700
E700
E700
7B80
7380
ENDCHAR
STARTCHAR 00E5
ENCODING 229
SWIDTH 462 0
DWIDTH 9 0
BBX 9 15 0 0
BITMAP
1C00
1200
1200
1C00
0000
3C00
7E00
6600
0700
3F00
6700
E700
E700
7B80
7380
ENDCHAR
STARTCHAR 00E6
ENCODING 230
SWIDTH 720 0
DWIDTH 14 0
BBX 12 10 1 0
BITMAP
79C0
FFE0
CE30
0630
7FF0
FFF0
C600
CE30
FBF0
F1E0
ENDCHAR
STARTCHAR 00E7
ENCODING 231
SWIDTH 462 0
DWIDTH 9 0
BBX 7 14 1 -4
BITMAP
38
7C
C6
C0
C0
C0
C6
C6
FC
38
10
18
08
38
ENDCHAR
STARTCHAR 00E8
ENCODING 232
SWIDTH 462 0
DWIDTH 9 0
BBX 7 14 1 0
BITMAP
30
18
08
00
78
FC
C6
FE
FE
C0
C0
C6
7C
38
ENDCHAR
STARTCHAR 00E9
ENCODING 233
SWIDTH 462 0
DWIDTH 9 0
BBX 7 14 1 0
BITMAP
0E
0C
18
00
78
FC
C6
FE
FE
C0
C0
C6
7C
38
ENDCHAR
STARTCHAR 00EA
ENCODING 234
SWIDTH 462 0
DWIDTH 9 0
BBX 7 14 1 0
BITMAP
18
3C
64
00
78
FC
C6
FE
FE
C0
C0
C6
7C
38
ENDCHAR
STARTCHAR 00EB
ENCODING 235
SWIDTH 462 0
DWIDTH 9 0
BBX 7 13 1 0
BITMAP
64
64
00
78
FC
C6
FE
FE
C0
C0
C6
7C
38
ENDCHAR
STARTCHAR 00EC
ENCODING 236
SWIDTH 205 0
DWIDTH 4 0
BBX 4 14 -1 0
BITMAP
E0
60
30
00
30
30
30
30
30
30
30
30
30
30
ENDCHAR
STARTCHAR 00ED
ENCODING 237
SWIDTH 205 0
DWIDTH 4 0
BBX 4 14 1 0
BITMAP
70
60
C0
00
C0
C0
C0
C0
C0
C0
C0
C0
C0
C0
ENDCHAR
STARTCHAR 00EE
ENCODING 238
SWIDTH 205 0
DWIDTH 4 0
BBX 6 14 -1 0
BITMAP
30
78
CC
00
30
30
30
30
30
30
30
30
30
30
ENDCHAR
STARTCHAR 00EF
ENCODING 239
SWIDTH 205 0
DWIDTH 4 0
BBX 5 13 0 0
BITMAP
98
98
00
60
60
60
60
60
60
60
60
60
60
ENDCHAR
STARTCHAR 00F0
ENCODING 240
SWIDTH 514 0
DWIDTH 10 0
BBX 8 14 1 0
BITMAP
30
1C
3C
2C
06
3E
FF
C7
C3
C3
C3
C6
FE
3C
ENDCHAR
STARTCHAR 00F1
ENCODING 241
SWIDTH 514 0
DWIDTH 10 0
BBX 8 14 1 0
BITMAP
32
3E
6E
00
DC
DE
E6
C7
C7
C7
C7
C7
C7
C7
ENDCHAR
STARTCHAR 00F2
ENCODING 242
SWIDTH 514 0
DWIDTH 10 0
BBX 8 14 1 0
BITMAP
30
18
0C
00
3C
7E
E7
C3
C3
C3
C3
E6
7E
3C
ENDCHAR
STARTCHAR 00F3
ENCODING 243
SWIDTH 514 0
DWIDTH 10 0
BBX 8 14 1 0
BITMAP
06
0C
18
00
3C
7E
E7
C3
C3
C3
C3
E6
7E
3C
ENDCHAR
STARTCHAR 00F4
ENCODING 244
SWIDTH 514 0
DWIDTH 10 0
BBX 8 14 1 0
BITMAP
18
3C
26
00
3C
7E
E7
C3
C3
C3
C3
E6
7E
3C
ENDCHAR
STARTCHAR 00F5
ENCODING 245
SWIDTH 514 0
DWIDTH 10 0
BBX 8 14 1 0
BITMAP
32
7E
4E
00
3C
7E
E7
C3
C3
C3
C3
E6
7E
3C
ENDCHAR
STARTCHAR 00F6
ENCODING 246
SWIDTH 514 0
DWIDTH 10 0
BBX 8 13 1 0
BITMAP
26
26
00
3C
7E
E7
C3
C3
C3
C3
E6
7E
3C
ENDCHAR
STARTCHAR 00F7
ENCODING 247
SWIDTH 514 0
DWIDTH 10 0
BBX 10 9 0 2
BITMAP
0C00
0C00
0000
0000
FFC0
FFC0
0000
0C00
0C00
ENDCHAR
STARTCHAR 00F8
ENCODING 248
SWIDTH 514 0
DWIDTH 10 0
BBX 9 12 0 -1
BITMAP
0080
1F80
3F00
7380
6780
6D80
6980
7380
7300
7F00
5E00
8000
ENDCHAR
STARTCHAR 00F9
ENCODING 249
SWIDTH 514 0
DWIDTH 10 0
BBX 7 14 1 0
BITMAP
30
18
08
00
C6
C6
C6
C6
C6
C6
C6
E6
FE
76
ENDCHAR
STARTCHAR 00FA
ENCODING 250
SWIDTH 514 0
DWIDTH 10 0
BBX 7 14 1 0
BITMAP
06
0C
18
00
C6
C6
C6
C6
C6
C6
C6
E6
FE
76
ENDCHAR
STARTCHAR 00FB
ENCODING 251
SWIDTH 514 0
DWIDTH 10 0
BBX 7 14 1 0
BITMAP
18
3C
26
00
C6
C6
C6
C6
C6
C6
C6
E6
FE
76
ENDCHAR
STARTCHAR 00FC
ENCODING 252
SWIDTH 514 0
DWIDTH 10 0
BBX 7 13 1 0
BITMAP
26
26
00
C6
C6
C6
C6
C6
C6
C6
E6
FE
76
ENDCHAR
STARTCHAR 00FD
ENCODING 253
SWIDTH 462 0
DWIDTH 9 0
BBX 8 18 0 -4
BITMAP
06
04
08
00
E3
63
63
66
36
36
36
1C
1C
1C
18
18
78
70
ENDCHAR
STARTCHAR 00FE
ENCODING 254
SWIDTH 514 0
DWIDTH 10 0
BBX 8 18 1 -4
BITMAP
C0
C0
C0
C0
DC
FE
E7
C3
C3
C3
C3
E7
FE
DC
C0
C0
C0
C0
ENDCHAR
STARTCHAR 00FF
ENCODING 255
SWIDTH 462 0
DWIDTH 9 0
BBX 8 17 0 -4
BITMAP
32
32
00
E3
63
63
66
36
36
36
1C
1C
1C
18
18
78
70
ENDCHAR
STARTCHAR 0100
ENCODING 256
SWIDTH 565 0
DWIDTH 11 0
BBX 12 16 1 0
BITMAP
1FF0
1FF0
0000
1C00
1C00
1E00
3600
3600
3300
6300
6300
7F00
FF80
C180
C180
C1C0
ENDCHAR
STARTCHAR 0101
ENCODING 257
SWIDTH 462 0
DWIDTH 9 0
BBX 11 13 0 0
BITMAP
1FE0
1FE0
0000
3C00
7E00
6700
0700
3F00
6700
E700
E700
7B80
7B80
ENDCHAR
STARTCHAR 0102
ENCODING 258
SWIDTH 565 0
DWIDTH 11 0
BBX 10 16 1 0
BITMAP
1300
0E00
0000
1C00
1C00
1E00
3600
3600
3300
6300
6300
7F00
FF80
C180
C180
C1C0
ENDCHAR
STARTCHAR 0103
ENCODING 259
SWIDTH 462 0
DWIDTH 9 0
BBX 9 14 0 0
BITMAP
3300
1200
1C00
0000
3C00
7E00
6700
0700
3F00
6700
E700
E700
7B80
7B80
ENDCHAR
STARTCHAR 0104
ENCODING 260
SWIDTH 565 0
DWIDTH 11 0
BBX 11 17 1 -4
BITMAP
1C00
1C00
1E00
3600
3600
3300
6300
6300
7F00
FF80
C180
C180
C1C0
0040
0040
00C0
0060
ENDCHAR
STARTCHAR 0105
ENCODING 261
SWIDTH 462 0
DWIDTH 9 0
BBX 9 14 0 -4
BITMAP
3C00
7E00
6700
0700
3F00
6700
E700
E700
7B80
7B80
0100
0300
0300
0180
ENDCHAR
STARTCHAR 0106
ENCODING 262
SWIDTH 565 0
DWIDTH 11 0
BBX 10 17 1 0
BITMAP
0380
0300
0600
0000
3E00
7F80
E180
C1C0
C000
C000
C000
C000
C000
E1C0
6180
7F80
1E00
ENDCHAR
STARTCHAR 0107
ENCODING 263
SWIDTH 462 0
DWIDTH 9 0
BBX 7 14 1 0
BITMAP
06
0C
18
00
38
7C
C6
C0
C0
C0
C6
C6
FC
38
ENDCHAR
STARTCHAR 0108
ENCODING 264
SWIDTH 565 0
DWIDTH 11 0
BBX 10 17 1 0
BITMAP
0600
0F00
1980
0000
3E00
7F80
E180
C1C0
C000
C000
C000
C000
C000
E1C0
6180
7F80
1E00
ENDCHAR
STARTCHAR 0109
ENCODING 265
SWIDTH 462 0
DWIDTH 9 0
BBX 7 14 1 0
BITMAP
18
3C
66
00
38
7C
C6
C0
C0
C0
C6
C6
FC
38
ENDCHAR
STARTCHAR 010A
ENCODING 266
SWIDTH 565 0
DWIDTH 11 0
BBX 10 17 1 0
BITMAP
0600
0600
0000
0000
3E00
7F80
E180
C1C0
C000
C000
C000
C000
C000
E1C0
6180
7F80
1E00
ENDCHAR
STARTCHAR 010B
ENCODING 267
SWIDTH 462 0
DWIDTH 9 0
BBX 7 14 1 0
BITMAP
18
18
00
00
38
7C
C6
C0
C0
C0
C6
C6
FC
38
ENDCHAR
STARTCHAR 010C
ENCODING 268
SWIDTH 565 0
DWIDTH 11 0
BBX 10 17 1 0
BITMAP
1900
0F00
0E00
0000
3E00
7F80
E180
C1C0
C000
C000
C000
C000
C000
E1C0
6180
7F80
1E00
ENDCHAR
STARTCHAR 010D
ENCODING 269
SWIDTH 462 0
DWIDTH 9 0
BBX 7 14 1 0
BITMAP
64
3C
18
00
38
7C
C6
C0
C0
C0
C6
C6
FC
38
ENDCHAR
STARTCHAR 010E
ENCODING 270
SWIDTH 565 0
DWIDTH 11 0
BBX 10 17 1 0
BITMAP
3300
1E00
0C00
0000
FE00
FF00
C380
C180
C180
C1C0
C1C0
C1C0
C180
C180
C380
FF00
FE00
ENDCHAR
STARTCHAR 010F
ENCODING 271
SWIDTH 565 0
DWIDTH 11 0
BBX 12 14 1 0
BITMAP
0630
0630
0610
0600
7600
FE00
C600
C600
C600
C600
C600
C600
FE00
7600
ENDCHAR
STARTCHAR 0110
ENCODING 272
SWIDTH 565 0
DWIDTH 11 0
BBX 11 13 0 0
BITMAP
7F00
7F80
61C0
60C0
60C0
FCE0
FCE0
60C0
60C0
60C0
61C0
7F80
7F00
ENDCHAR
STARTCHAR 0111
ENCODING 273
SWIDTH 514 0
DWIDTH 10 0
BBX 9 14 1 0
BITMAP
0600
1F80
1F80
0600
7600
FE00
C600
C600
C600
C600
C600
C600
FE00
7700
ENDCHAR
STARTCHAR 0112
ENCODING 274
SWIDTH 514 0
DWIDTH 10 0
BBX 11 16 1 0
BITMAP
1FE0
1FE0
0000
FF00
FF00
C000
C000
C000
FF00
FF00
C000
C000
C000
C000
FF80
FF80
ENDCHAR
STARTCHAR 0113
ENCODING 275
SWIDTH 462 0
DWIDTH 9 0
BBX 10 13 1 0
BITMAP
3FC0
3FC0
0000
7800
FC00
C600
FE00
FE00
C000
C000
C600
7C00
3800
ENDCHAR
STARTCHAR 0114
ENCODING 276
SWIDTH 514 0
DWIDTH 10 0
BBX 9 16 1 0
BITMAP
3300
1E00
0000
FF00
FF00
C000
C000
C000
FF00
FF00
C000
C000
C000
C000
FF80
FF80
ENDCHAR
STARTCHAR 0115
ENCODING 277
SWIDTH 462 0
DWIDTH 9 0
BBX 7 14 1 0
BITMAP
44
64
38
00
78
FC
C6
FE
FE
C0
C0
C6
7C
38
ENDCHAR
STARTCHAR 0116
ENCODING 278
SWIDTH 514 0
DWIDTH 10 0
BBX 9 17 1 0
BITMAP
0C00
0C00
0000
0000
FF00
FF00
C000
C000
C000
FF00
FF00
C000
C000
C000
C000
FF80
FF80
ENDCHAR
STARTCHAR 0117
ENCODING 279
SWIDTH 462 0
DWIDTH 9 0
BBX 7 14 1 0
BITMAP
18
18
00
00
78
FC
C6
FE
FE
C0
C0
C6
7C
38
ENDCHAR
STARTCHAR 0118
ENCODING 280
SWIDTH 514 0
DWIDTH 10 0
BBX 9 17 1 -4
BITMAP
FF00
FF00
C000
C000
C000
FF00
FF00
C000
C000
C000
C000
FF80
FF80
0180
0100
0100
0180
ENDCHAR
STARTCHAR 0119
ENCODING 281
SWIDTH 462 0
DWIDTH 9 0
BBX 7 14 1 -4
BITMAP
78
FC
C6
FE
FE
C0
C0
C6
7C
38
04
08
08
0E
ENDCHAR
STARTCHAR 011A
ENCODING 282
SWIDTH 514 0
DWIDTH 10 0
BBX 9 17 1 0
BITMAP
3300
1E00
0C00
0000
FF00
FF00
C000
C000
C000
FF00
FF00
C000
C000
C000
C000
FF80
FF80
ENDCHAR
STARTCHAR 011B
ENCODING 283
SWIDTH 462 0
DWIDTH 9 0
BBX 7 14 1 0
BITMAP
64
3C
18
00
78
FC
C6
FE
FE
C0
C0
C6
7C
38
ENDCHAR
STARTCHAR 011C
ENCODING 284
SWIDTH 617 0
DWIDTH 12 0
BBX 10 17 1 0
BITMAP
0600
0F00
1900
0000
1F00
7F80
E1C0
C080
C000
C000
C7C0
C7C0
C0C0
E0C0
61C0
7F80
1F00
ENDCHAR
STARTCHAR 011D
ENCODING 285
SWIDTH 514 0
DWIDTH 10 0
BBX 7 18 1 -4
BITMAP
18
3C
66
00
76
FE
C6
C6
C6
C6
C6
C6
FE
76
06
C6
FE
7C
ENDCHAR
STARTCHAR 011E
ENCODING 286
SWIDTH 617 0
DWIDTH 12 0
BBX 10 16 1 0
BITMAP
1980
0F00
0000
1F00
7F80
E1C0
C080
C000
C000
C7C0
C7C0
C0C0
E0C0
61C0
7F80
1F00
ENDCHAR
STARTCHAR 011F
ENCODING 287
SWIDTH 514 0
DWIDTH 10 0
BBX 7 18 1 -4
BITMAP
66
24
1C
00
76
FE
C6
C6
C6
C6
C6
C6
FE
76
06
C6
FE
7C
ENDCHAR
STARTCHAR 0120
ENCODING 288
SWIDTH 617 0
DWIDTH 12 0
BBX 10 17 1 0
BITMAP
0600
0600
0000
0000
1F00
7F80
E1C0
C080
C000
C000
C7C0
C7C0
C0C0
E0C0
61C0
7F80
1F00
ENDCHAR
STARTCHAR 0121
ENCODING 289
SWIDTH 514 0
DWIDTH 10 0
BBX 7 18 1 -4
BITMAP
18
18
00
00
76
FE
C6
C6
C6
C6
C6
C6
FE
76
06
C6
FE
7C
ENDCHAR
STARTCHAR 0122
ENCODING 290
SWIDTH 617 0
DWIDTH 12 0
BBX 10 17 1 -4
BITMAP
1F00
7F80
E1C0
C080
C000
C000
C7C0
C7C0
C0C0
E0C0
61C0
7F80
1F00
0000
0600
0600
0200
ENDCHAR
STARTCHAR 0123
ENCODING 291
SWIDTH 514 0
DWIDTH 10 0
BBX 7 18 1 -4
BITMAP
08
18
18
00
76
FE
C6
C6
C6
C6
C6
C6
FE
76
06
C6
FE
7C
ENDCHAR
STARTCHAR 0124
ENCODING 292
SWIDTH 565 0
DWIDTH 11 0
BBX 9 17 1 0
BITMAP
0E00
1E00
1300
0000
C180
C180
C180
C180
C180
FF80
FF80
C180
C180
C180
C180
C180
C180
ENDCHAR
STARTCHAR 0125
ENCODING 293
SWIDTH 514 0
DWIDTH 10 0
BBX 8 18 1 0
BITMAP
1C
3C
26
00
C0
C0
C0
C0
DC
DE
E6
C7
C7
C7
C7
C7
C7
C7
ENDCHAR
STARTCHAR 0126
ENCODING 294
SWIDTH 565 0
DWIDTH 11 0
BBX 11 13 0 0
BITMAP
60C0
FFE0
FFE0
60C0
60C0
7FC0
7FC0
60C0
60C0
60C0
60C0
60C0
60C0
ENDCHAR
STARTCHAR 0127
ENCODING 295
SWIDTH 514 0
DWIDTH 10 0
BBX 9 14 0 0
BITMAP
6000
FC00
FC00
6000
6E00
6F00
7300
6380
6380
6380
6380
6380
6380
6380
ENDCHAR
STARTCHAR 0128
ENCODING 296
SWIDTH 205 0
DWIDTH 4 0
BBX 6 17 -1 0
BITMAP
64
FC
98
00
30
30
30
30
30
30
30
30
30
30
30
30
30
ENDCHAR
STARTCHAR 0129
ENCODING 297
SWIDTH 205 0
DWIDTH 4 0
BBX 6 14 -1 0
BITMAP
64
FC
98
00
30
30
30
30
30
30
30
30
30
30
ENDCHAR
STARTCHAR 012A
ENCODING 298
SWIDTH 205 0
DWIDTH 4 0
BBX 9 16 0 0
BITMAP
FF80
FF80
0000
6000
6000
6000
6000
6000
6000
6000
6000
6000
6000
6000
6000
6000
ENDCHAR
STARTCHAR 012B
ENCODING 299
SWIDTH 205 0
DWIDTH 4 0
BBX 9 13 0 0
BITMAP
FF80
FF80
0000
6000
6000
6000
6000
6000
6000
6000
6000
6000
6000
ENDCHAR
STARTCHAR 012C
ENCODING 300
SWIDTH 205 0
DWIDTH 4 0
BBX 5 16 0 0
BITMAP
98
F0
00
60
60
60
60
60
60
60
60
60
60
60
60
60
ENDCHAR
STARTCHAR 012D
ENCODING 301
SWIDTH 205 0
DWIDTH 4 0
BBX 5 14 0 0
BITMAP
88
90
70
00
60
60
60
60
60
60
60
60
60
60
ENDCHAR
STARTCHAR 012E
ENCODING 302
SWIDTH 205 0
DWIDTH 4 0
BBX 3 17 1 -4
BITMAP
C0
C0
C0
C0
C0
C0
C0
C0
C0
C0
C0
C0
C0
40
80
80
E0
ENDCHAR
STARTCHAR 012F
ENCODING 303
SWIDTH 205 0
DWIDTH 4 0
BBX 2 18 1 -4
BITMAP
C0
C0
00
00
C0
C0
C0
C0
C0
C0
C0
C0
C0
C0
C0
80
80
C0
ENDCHAR
STARTCHAR 0130
ENCODING 304
SWIDTH 205 0
DWIDTH 4 0
BBX 2 17 1 0
BITMAP
C0
C0
00
00
C0
C0
C0
C0
C0
C0
C0
C0
C0
C0
C0
C0
C0
ENDCHAR
STARTCHAR 0131
ENCODING 305
SWIDTH 205 0
DWIDTH 4 0
BBX 2 10 1 0
BITMAP
C0
C0
C0
C0
C0
C0
C0
C0
C0
C0
ENDCHAR
STARTCHAR 0132
ENCODING 306
SWIDTH 668 0
DWIDTH 13 0
BBX 11 13 1 0
BITMAP
C1E0
C1E0
C060
C060
C060
C060
C060
C060
C060
CC60
CCE0
CFC0
C780
ENDCHAR
STARTCHAR 0133
ENCODING 307
SWIDTH 462 0
DWIDTH 9 0
BBX 8 18 1 -4
BITMAP
C7
C7
00
00
C7
C7
C7
C7
C7
C7
C7
C7
C7
C7
07
07
0E
0E
ENDCHAR
STARTCHAR 0134
ENCODING 308
SWIDTH 462 0
DWIDTH 9 0
BBX 8 17 0 0
BITMAP
06
0F
19
00
1F
1F
07
07
07
07
07
07
07
E7
E6
7E
3C
ENDCHAR
STARTCHAR 0135
ENCODING 309
SWIDTH 205 0
DWIDTH 4 0
BBX 6 18 -1 -4
BITMAP
30
78
CC
00
30
30
30
30
30
30
30
30
30
30
30
30
70
60
ENDCHAR
STARTCHAR 0136
ENCODING 310
SWIDTH 565 0
DWIDTH 11 0
BBX 10 17 1 -4
BITMAP
C180
C300
C700
CE00
DC00
D800
FC00
EC00
C600
C700
C300
C380
C1C0
0000
0600
0600
0400
ENDCHAR
STARTCHAR 0137
ENCODING 311
SWIDTH 462 0
DWIDTH 9 0
BBX 7 18 1 -4
BITMAP
C0
C0
C0
C0
C6
CC
DC
D8
F8
F8
CC
CC
C6
C6
00
18
18
08
ENDCHAR
STARTCHAR 0138
ENCODING 312
SWIDTH 462 0
DWIDTH 9 0
BBX 7 10 1 0
BITMAP
C6
CC
DC
D8
F8
F8
CC
CC
C6
C6
ENDCHAR
STARTCHAR 0139
ENCODING 313
SWIDTH 514 0
DWIDTH 10 0
BBX 8 17 1 0
BITMAP
18
30
60
00
C0
C0
C0
C0
C0
C0
C0
C0
C0
C0
C0
FF
FF
ENDCHAR
STARTCHAR 013A
ENCODING 314
SWIDTH 205 0
DWIDTH 4 0
BBX 4 18 1 0
BITMAP
70
60
C0
00
C0
C0
C0
C0
C0
C0
C0
C0
C0
C0
C0
C0
C0
C0
ENDCHAR
STARTCHAR 013B
ENCODING 315
SWIDTH 514 0
DWIDTH 10 0
BBX 8 17 1 -4
BITMAP
C0
C0
C0
C0
C0
C0
C0
C0
C0
C0
C0
FF
FF
00
08
08
08
ENDCHAR
STARTCHAR 013C
ENCODING 316
SWIDTH 205 0
DWIDTH 4 0
BBX 2 18 1 -4
BITMAP
C0
C0
C0
C0
C0
C0
C0
C0
C0
C0
C0
C0
C0
C0
00
C0
C0
40
ENDCHAR
STARTCHAR 013D
ENCODING 317
SWIDTH 514 0
DWIDTH 10 0
BBX 8 13 1 0
BITMAP
C3
C3
C2
C0
C0
C0
C0
C0
C0
C0
C0
FF
FF
ENDCHAR
STARTCHAR 013E
ENCODING 318
SWIDTH 308 0
DWIDTH 6 0
BBX 6 14 1 0
BITMAP
CC
CC
C8
C0
C0
C0
C0
C0
C0
C0
C0
C0
C0
C0
ENDCHAR
STARTCHAR 013F
ENCODING 319
SWIDTH 514 0
DWIDTH 10 0
BBX 8 13 1 0
BITMAP
C0
C0
C0
C0
C0
C6
C6
C0
C0
C0
C0
FF
FF
ENDCHAR
STARTCHAR 0140
ENCODING 320
SWIDTH 308 0
DWIDTH 6 0
BBX 6 14 1 0
BITMAP
C0
C0
C0
C0
C0
C0
CC
CC
C0
C0
C0
C0
C0
C0
ENDCHAR
STARTCHAR 0141
ENCODING 321
SWIDTH 514 0
DWIDTH 10 0
BBX 9 13 0 0
BITMAP
6000
6000
6000
6000
6400
7C00
7800
E000
E000
6000
6000
7F80
7F80
ENDCHAR
STARTCHAR 0142
ENCODING 322
SWIDTH 205 0
DWIDTH 4 0
BBX 4 14 0 0
BITMAP
60
60
60
60
60
70
70
E0
E0
60
60
60
60
60
ENDCHAR
STARTCHAR 0143
ENCODING 323
SWIDTH 565 0
DWIDTH 11 0
BBX 9 17 1 0
BITMAP
0300
0600
0C00
0000
E180
E180
F180
F180
D980
D980
CD80
CD80
CF80
C780
C780
C380
C380
ENDCHAR
STARTCHAR 0144
ENCODING 324
SWIDTH 514 0
DWIDTH 10 0
BBX 8 14 1 0
BITMAP
06
0C
18
00
DC
DE
E6
C7
C7
C7
C7
C7
C7
C7
ENDCHAR
STARTCHAR 0145
ENCODING 325
SWIDTH 565 0
DWIDTH 11 0
BBX 9 17 1 -4
BITMAP
E180
E180
F180
F180
D980
D980
CD80
CD80
CF80
C780
C780
C380
C380
0000
0C00
0C00
0400
ENDCHAR
STARTCHAR 0146
ENCODING 326
SWIDTH 514 0
DWIDTH 10 0
BBX 8 14 1 -4
BITMAP
DC
DE
E6
C7
C7
C7
C7
C7
C7
C7
00
08
08
08
ENDCHAR
STARTCHAR 0147
ENCODING 327
SWIDTH 565 0
DWIDTH 11 0
BBX 9 17 1 0
BITMAP
1300
1E00
0C00
0000
E180
E180
F180
F180
D980
D980
CD80
CD80
CF80
C780
C780
C380
C380
ENDCHAR
STARTCHAR 0148
ENCODING 328
SWIDTH 514 0
DWIDTH 10 0
BBX 8 14 1 0
BITMAP
66
3C
18
00
DC
DE
E6
C7
C7
C7
C7
C7
C7
C7
ENDCHAR
STARTCHAR 0149
ENCODING 329
SWIDTH 668 0
DWIDTH 13 0
BBX 10 13 0 0
BITMAP
C000
C000
4000
DB80
9FC0
1CC0
18C0
18C0
18C0
18C0
18C0
18C0
18C0
ENDCHAR
STARTCHAR 014A
ENCODING 330
SWIDTH 565 0
DWIDTH 11 0
BBX 9 13 1 0
BITMAP
CF00
DF80
F380
E180
C180
C180
C180
C180
C180
C180
C980
DF80
CF00
ENDCHAR
STARTCHAR 014B
ENCODING 331
SWIDTH 514 0
DWIDTH 10 0
BBX 8 14 1 -4
BITMAP
DC
DE
E6
C7
C7
C7
C7
C7
C7
C7
07
07
0E
0E
ENDCHAR
STARTCHAR 014C
ENCODING 332
SWIDTH 617 0
DWIDTH 12 0
BBX 12 16 1 0
BITMAP
0FF0
0FF0
0000
1E00
7F80
61C0
E0C0
C0C0
C0C0
C0C0
C0C0
C0C0
E0C0
61C0
7F80
1E00
ENDCHAR
STARTCHAR 014D
ENCODING 333
SWIDTH 514 0
DWIDTH 10 0
BBX 11 13 1 0
BITMAP
3FE0
3FE0
0000
3C00
7E00
E700
C300
C300
C300
C300
E600
7E00
3C00
ENDCHAR
STARTCHAR 014E
ENCODING 334
SWIDTH 617 0
DWIDTH 12 0
BBX 10 16 1 0
BITMAP
1900
0E00
0000
1E00
7F80
61C0
E0C0
C0C0
C0C0
C0C0
C0C0
C0C0
E0C0
61C0
7F80
1E00
ENDCHAR
STARTCHAR 014F
ENCODING 335
SWIDTH 514 0
DWIDTH 10 0
BBX 8 14 1 0
BITMAP
22
26
1C
00
3C
7E
E7
C3
C3
C3
C3
E6
7E
3C
ENDCHAR
STARTCHAR 0150
ENCODING 336
SWIDTH 617 0
DWIDTH 12 0
BBX 10 17 1 0
BITMAP
06C0
0D80
0900
0000
1E00
7F80
61C0
E0C0
C0C0
C0C0
C0C0
C0C0
C0C0
E0C0
61C0
7F80
1E00
ENDCHAR
STARTCHAR 0151
ENCODING 337
SWIDTH 514 0
DWIDTH 10 0
BBX 8 14 1 0
BITMAP
1B
12
26
00
3C
7E
E7
C3
C3
C3
C3
E6
7E
3C
ENDCHAR
STARTCHAR 0152
ENCODING 338
SWIDTH 822 0
DWIDTH 16 0
BBX 14 13 1 0
BITMAP
1FFC
7FFC
E380
C380
C380
C3F8
C3F8
C380
C380
E380
6380
7FFC
1FFC
ENDCHAR
STARTCHAR 0153
ENCODING 339
SWIDTH 771 0
DWIDTH 15 0
BBX 13 10 1 0
BITMAP
3CE0
7FF0
E718
C718
C3F8
C3F8
C300
E718
7FF8
3CE0
ENDCHAR
STARTCHAR 0154
ENCODING 340
SWIDTH 565 0
DWIDTH 11 0
BBX 10 17 1 0
BITMAP
0700
0600
0C00
0000
FF00
FF80
C180
C180
C180
C180
FF80
FE00
C700
C300
C380
C180
C1C0
ENDCHAR
STARTCHAR 0155
ENCODING 341
SWIDTH 308 0
DWIDTH 6 0
BBX 5 14 1 0
BITMAP
18
30
60
00
D8
F8
E0
C0
C0
C0
C0
C0
C0
C0
ENDCHAR
STARTCHAR 0156
ENCODING 342
SWIDTH 565 0
DWIDTH 11 0
BBX 10 17 1 -4
BITMAP
FF00
FF80
C180
C180
C180
C180
FF80
FE00
C700
C300
C380
C180
C1C0
0000
0400
0400
0400
ENDCHAR
STARTCHAR 0157
ENCODING 343
SWIDTH 308 0
DWIDTH 6 0
BBX 5 14 1 -4
BITMAP
D8
F8
E0
C0
C0
C0
C0
C0
C0
C0
00
C0
C0
40
ENDCHAR
STARTCHAR 0158
ENCODING 344
SWIDTH 565 0
DWIDTH 11 0
BBX 10 17 1 0
BITMAP
3300
1E00
0C00
0000
FF00
FF80
C180
C180
C180
C180
FF80
FE00
C700
C300
C380
C180
C1C0
ENDCHAR
STARTCHAR 0159
ENCODING 345
SWIDTH 308 0
DWIDTH 6 0
BBX 5 14 1 0
BITMAP
98
D0
70
00
D8
F8
E0
C0
C0
C0
C0
C0
C0
C0
ENDCHAR
STARTCHAR 015A
ENCODING 346
SWIDTH 514 0
DWIDTH 10 0
BBX 9 17 1 0
BITMAP
0300
0600
0C00
0000
3E00
7F00
C300
C200
E000
FC00
7F00
0700
0380
C180
C380
FF00
3E00
ENDCHAR
STARTCHAR 015B
ENCODING 347
SWIDTH 462 0
DWIDTH 9 0
BBX 7 14 1 0
BITMAP
0C
18
10
00
78
FC
C6
E0
FC
3E
06
C6
FE
7C
ENDCHAR
STARTCHAR 015C
ENCODING 348
SWIDTH 514 0
DWIDTH 10 0
BBX 9 17 1 0
BITMAP
0C00
1E00
3300
0000
3E00
7F00
C300
C200
E000
FC00
7F00
0700
0380
C180
C380
FF00
3E00
ENDCHAR
STARTCHAR 015D
ENCODING 349
SWIDTH 462 0
DWIDTH 9 0
BBX 7 14 1 0
BITMAP
38
3C
64
00
78
FC
C6
E0
FC
3E
06
C6
FE
7C
ENDCHAR
STARTCHAR 015E
ENCODING 350
SWIDTH 514 0
DWIDTH 10 0
BBX 9 17 1 -4
BITMAP
3E00
7F00
C300
C200
E000
FC00
7F00
0700
0380
C180
C380
FF00
3E00
1000
1800
0C00
1800
ENDCHAR
STARTCHAR 015F
ENCODING 351
SWIDTH 462 0
DWIDTH 9 0
BBX 7 14 1 -4
BITMAP
78
FC
C6
E0
FC
3E
06
C6
FE
7C
10
38
18
30
ENDCHAR
STARTCHAR 0160
ENCODING 352
SWIDTH 514 0
DWIDTH 10 0
BBX 9 17 1 0
BITMAP
3200
1E00
0C00
0000
3E00
7F00
C300
C200
E000
FC00
7F00
0700
0380
C180
C380
FF00
3E00
ENDCHAR
STARTCHAR 0161
ENCODING 353
SWIDTH 462 0
DWIDTH 9 0
BBX 7 14 1 0
BITMAP
64
3C
18
00
78
FC
C6
E0
FC
3E
06
C6
FE
7C
ENDCHAR
STARTCHAR 0162
ENCODING 354
SWIDTH 514 0
DWIDTH 10 0
BBX 9 17 0 -4
BITMAP
FF80
FF80
0C00
0C00
0C00
0C00
0C00
0C00
0C00
0C00
0C00
0C00
0C00
0800
0C00
0400
1C00
ENDCHAR
STARTCHAR 0163
ENCODING 355
SWIDTH 257 0
DWIDTH 5 0
BBX 5 16 0 -4
BITMAP
20
20
F8
F8
60
60
60
60
60
60
78
38
10
38
08
38
ENDCHAR
STARTCHAR 0164
ENCODING 356
SWIDTH 514 0
DWIDTH 10 0
BBX 9 17 0 0
BITMAP
1300
1E00
0E00
0000
FF80
FF80
0C00
0C00
0C00
0C00
0C00
0C00
0C00
0C00
0C00
0C00
0C00
ENDCHAR
STARTCHAR 0165
ENCODING 357
SWIDTH 360 0
DWIDTH 7 0
BBX 9 14 0 0
BITMAP
0180
0100
2100
2000
F800
F800
6000
6000
6000
6000
6000
6000
7800
3800
ENDCHAR
STARTCHAR 0166
ENCODING 358
SWIDTH 514 0
DWIDTH 10 0
BBX 9 13 0 0
BITMAP
FF80
FF80
0C00
0C00
0C00
3F00
3F00
0C00
0C00
0C00
0C00
0C00
0C00
ENDCHAR
STARTCHAR 0167
ENCODING 359
SWIDTH 257 0
DWIDTH 5 0
BBX 5 12 0 0
BITMAP
20
20
F8
F8
60
60
F8
F8
60
60
78
38
ENDCHAR
STARTCHAR 0168
ENCODING 360
SWIDTH 565 0
DWIDTH 11 0
BBX 9 17 1 0
BITMAP
1900
3F00
2700
0000
C180
C180
C180
C180
C180
C180
C180
C180
C180
C180
E380
7F00
3E00
ENDCHAR
STARTCHAR 0169
ENCODING 361
SWIDTH 514 0
DWIDTH 10 0
BBX 7 14 1 0
BITMAP
32
7E
4C
00
C6
C6
C6
C6
C6
C6
C6
E6
FE
76
ENDCHAR
STARTCHAR 016A
ENCODING 362
SWIDTH 565 0
DWIDTH 11 0
BBX 12 16 1 0
BITMAP
1FF0
1FF0
0000
C180
C180
C180
C180
C180
C180
C180
C180
C180
C180
E380
7F00
3E00
ENDCHAR
STARTCHAR 016B
ENCODING 363
SWIDTH 514 0
DWIDTH 10 0
BBX 11 13 1 0
BITMAP
3FE0
3FE0
0000
C600
C600
C600
C600
C600
C600
C600
E600
FE00
7600
ENDCHAR
STARTCHAR 016C
ENCODING 364
SWIDTH 565 0
DWIDTH 11 0
BBX 9 16 1 0
BITMAP
1300
0E00
0000
C180
C180
C180
C180
C180
C180
C180
C180
C180
C180
E380
7F00
3E00
ENDCHAR
STARTCHAR 016D
ENCODING 365
SWIDTH 514 0
DWIDTH 10 0
BBX 7 14 1 0
BITMAP
22
26
1C
00
C6
C6
C6
C6
C6
C6
C6
E6
FE
76
ENDCHAR
STARTCHAR 016E
ENCODING 366
SWIDTH 565 0
DWIDTH 11 0
BBX 9 18 1 0
BITMAP
0E00
1A00
0A00
0E00
0000
C180
C180
C180
C180
C180
C180
C180
C180
C180
C180
E380
7F00
3E00
ENDCHAR
STARTCHAR 016F
ENCODING 367
SWIDTH 514 0
DWIDTH 10 0
BBX 7 15 1 0
BITMAP
1C
24
24
1C
00
C6
C6
C6
C6
C6
C6
C6
E6
FE
76
ENDCHAR
STARTCHAR 0170
ENCODING 368
SWIDTH 565 0
DWIDTH 11 0
BBX 9 17 1 0
BITMAP
0D80
1900
1200
0000
C180
C180
C180
C180
C180
C180
C180
C180
C180
C180
E380
7F00
3E00
ENDCHAR
STARTCHAR 0171
ENCODING 369
SWIDTH 514 0
DWIDTH 10 0
BBX 8 14 1 0
BITMAP
1B
36
24
00
C6
C6
C6
C6
C6
C6
C6
E6
FE
76
ENDCHAR
STARTCHAR 0172
ENCODING 370
SWIDTH 565 0
DWIDTH 11 0
BBX 9 17 1 -4
BITMAP
C180
C180
C180
C180
C180
C180
C180
C180
C180
C180
E380
7F00
3E00
0600
0400
0400
0700
ENDCHAR
STARTCHAR 0173
ENCODING 371
SWIDTH 514 0
DWIDTH 10 0
BBX 9 14 1 -4
BITMAP
C600
C600
C600
C600
C600
C600
C600
E600
FE00
7600
0300
0200
0200
0380
ENDCHAR
STARTCHAR 0174
ENCODING 372
SWIDTH 771 0
DWIDTH 15 0
BBX 15 17 0 0
BITMAP
01C0
03C0
0260
0000
C38E
E38C
638C
678C
66CC
66DC
66D8
34D8
34D8
3C58
3C70
3C70
1C70
ENDCHAR
STARTCHAR 0175
ENCODING 373
SWIDTH 617 0
DWIDTH 12 0
BBX 12 14 0 0
BITMAP
0300
0780
0C80
0000
C630
C730
CF30
6F20
6D60
6960
69E0
39E0
39C0
30C0
ENDCHAR
STARTCHAR 0176
ENCODING 374
SWIDTH 514 0
DWIDTH 10 0
BBX 9 17 1 0
BITMAP
0C00
1E00
3200
0000
C180
C300
6300
6600
7600
3C00
3C00
1800
1800
1800
1800
1800
1800
ENDCHAR
STARTCHAR 0177
ENCODING 375
SWIDTH 462 0
DWIDTH 9 0
BBX 8 18 0 -4
BITMAP
0C
1E
32
00
E3
63
63
66
36
36
36
1C
1C
1C
18
18
78
70
ENDCHAR
STARTCHAR 0178
ENCODING 376
SWIDTH 514 0
DWIDTH 10 0
BBX 9 16 1 0
BITMAP
3200
3200
0000
C180
C300
6300
6600
7600
3C00
3C00
1800
1800
1800
1800
1800
1800
ENDCHAR
STARTCHAR 0179
ENCODING 377
SWIDTH 514 0
DWIDTH 10 0
BBX 9 17 0 0
BITMAP
0300
0600
0C00
0000
7F80
7F80
0300
0700
0600
0C00
1C00
1800
3800
7000
6000
FF80
FF80
ENDCHAR
STARTCHAR 017A
ENCODING 378
SWIDTH 411 0
DWIDTH 8 0
BBX 6 14 1 0
BITMAP
0C
18
30
00
FC
FC
1C
18
30
70
60
C0
FC
FC
ENDCHAR
STARTCHAR 017B
ENCODING 379
SWIDTH 514 0
DWIDTH 10 0
BBX 9 17 0 0
BITMAP
0C00
0C00
0000
0000
7F80
7F80
0300
0700
0600
0C00
1C00
1800
3800
7000
6000
FF80
FF80
ENDCHAR
STARTCHAR 017C
ENCODING 380
SWIDTH 411 0
DWIDTH 8 0
BBX 6 14 1 0
BITMAP
30
30
00
00
FC
FC
1C
18
30
70
60
C0
FC
FC
ENDCHAR
STARTCHAR 017D
ENCODING 381
SWIDTH 514 0
DWIDTH 10 0
BBX 9 17 0 0
BITMAP
1300
1E00
0E00
0000
7F80
7F80
0300
0700
0600
0C00
1C00
1800
3800
7000
6000
FF80
FF80
ENDCHAR
STARTCHAR 017E
ENCODING 382
SWIDTH 411 0
DWIDTH 8 0
BBX 6 14 1 0
BITMAP
4C
78
30
00
FC
FC
1C
18
30
70
60
C0
FC
FC
ENDCHAR
STARTCHAR 017F
ENCODING 383
SWIDTH 205 0
DWIDTH 4 0
BBX 4 14 1 0
BITMAP
70
F0
C0
C0
C0
C0
C0
C0
C0
C0
C0
C0
C0
C0
ENDCHAR
STARTCHAR 0192
ENCODING 402
SWIDTH 462 0
DWIDTH 9 0
BBX 7 18 1 -4
BITMAP
0E
1E
18
18
7C
7C
30
30
30
30
70
60
60
60
60
60
60
E0
ENDCHAR
STARTCHAR 01FA
ENCODING 506
SWIDTH 565 0
DWIDTH 11 0
BBX 10 20 1 0
BITMAP
0300
0600
0C00
0000
0E00
1A00
0A00
1E00
1C00
1E00
3600
3600
3300
6300
6300
7F00
FF80
C180
C180
C1C0
ENDCHAR
STARTCHAR 01FB
ENCODING 507
SWIDTH 462 0
DWIDTH 9 0
BBX 9 19 0 0
BITMAP
0300
0600
0C00
0000
0C00
1200
1200
0C00
0000
3C00
7E00
6700
0700
3F00
6700
E700
E700
7B80
7B80
ENDCHAR
STARTCHAR 01FC
ENCODING 508
SWIDTH 822 0
DWIDTH 16 0
BBX 15 17 0 0
BITMAP
001C
0018
0030
0000
07FE
07FE
0D80
0D80
0D80
19FC
19FC
3980
3F80
7F80
6180
61FE
E1FE
ENDCHAR
STARTCHAR 01FD
ENCODING 509
SWIDTH 720 0
DWIDTH 14 0
BBX 12 14 1 0
BITMAP
00C0
0180
0300
0000
79C0
FFE0
CE30
0630
7FF0
FFF0
C600
CE30
FBF0
F1E0
ENDCHAR
STARTCHAR 01FE
ENCODING 510
SWIDTH 617 0
DWIDTH 12 0
BBX 10 18 1 -1
BITMAP
0300
0600
0400
00C0
1F80
7F80
61C0
E2C0
C6C0
C4C0
CCC0
C8C0
D8C0
F0C0
61C0
7F80
7E00
C000
ENDCHAR
STARTCHAR 01FF
ENCODING 511
SWIDTH 514 0
DWIDTH 10 0
BBX 9 15 0 -1
BITMAP
0300
0600
0C00
0080
1F80
3F00
7380
6780
6D80
6980
7380
7300
7F00
5E00
8000
ENDCHAR
STARTCHAR char512
ENCODING 512
SWIDTH 360 0
DWIDTH 7 0
BBX 7 7 0 3
BITMAP
38
54
92
9A
82
44
38
ENDCHAR
STARTCHAR 0218
ENCODING 536
SWIDTH 514 0
DWIDTH 10 0
BBX 9 17 1 -4
BITMAP
3E00
7F00
C300
C200
E000
FC00
7F00
0700
0380
C180
C380
FF00
3E00
0000
1800
1800
0800
ENDCHAR
STARTCHAR 0219
ENCODING 537
SWIDTH 462 0
DWIDTH 9 0
BBX 7 14 1 -4
BITMAP
78
FC
C6
E0
FC
3E
06
C6
FE
7C
00
10
10
10
ENDCHAR
STARTCHAR 021A
ENCODING 538
SWIDTH 514 0
DWIDTH 10 0
BBX 9 17 0 -4
BITMAP
FF80
FF80
0C00
0C00
0C00
0C00
0C00
0C00
0C00
0C00
0C00
0C00
0C00
0000
0C00
0C00
0800
ENDCHAR
STARTCHAR 021B
ENCODING 539
SWIDTH 257 0
DWIDTH 5 0
BBX 5 16 0 -4
BITMAP
20
20
F8
F8
60
60
60
60
60
60
78
38
00
30
30
10
ENDCHAR
STARTCHAR 02C6
ENCODING 710
SWIDTH 257 0
DWIDTH 5 0
BBX 5 3 0 11
BITMAP
30
78
C8
ENDCHAR
STARTCHAR 02C7
ENCODING 711
SWIDTH 257 0
DWIDTH 5 0
BBX 5 3 0 11
BITMAP
C8
78
30
ENDCHAR
STARTCHAR 02C9
ENCODING 713
SWIDTH 514 0
DWIDTH 10 0
BBX 9 2 0 11
BITMAP
FF80
FF80
ENDCHAR
STARTCHAR 02D8
ENCODING 728
SWIDTH 257 0
DWIDTH 5 0
BBX 5 3 0 11
BITMAP
88
98
70
ENDCHAR
STARTCHAR 02D9
ENCODING 729
SWIDTH 257 0
DWIDTH 5 0
BBX 2 2 2 12
BITMAP
C0
C0
ENDCHAR
STARTCHAR 02DA
ENCODING 730
SWIDTH 257 0
DWIDTH 5 0
BBX 4 4 0 11
BITMAP
70
90
90
70
ENDCHAR
STARTCHAR 02DB
ENCODING 731
SWIDTH 257 0
DWIDTH 5 0
BBX 3 4 1 -4
BITMAP
C0
80
80
E0
ENDCHAR
STARTCHAR 02DC
ENCODING 732
SWIDTH 257 0
DWIDTH 5 0
BBX 6 3 0 11
BITMAP
64
FC
98
ENDCHAR
STARTCHAR 02DD
ENCODING 733
SWIDTH 257 0
DWIDTH 5 0
BBX 7 3 -1 11
BITMAP
36
6C
D8
ENDCHAR
STARTCHAR 037E
ENCODING 894
SWIDTH 257 0
DWIDTH 5 0
BBX 2 13 2 -3
BITMAP
C0
C0
C0
00
00
00
00
C0
C0
C0
C0
80
80
ENDCHAR
STARTCHAR 0384
ENCODING 900
SWIDTH 257 0
DWIDTH 5 0
BBX 3 3 1 11
BITMAP
60
40
C0
ENDCHAR
STARTCHAR 0385
ENCODING 901
SWIDTH 257 0
DWIDTH 5 0
BBX 4 4 1 11
BITMAP
60
40
F0
F0
ENDCHAR
STARTCHAR 0386
ENCODING 902
SWIDTH 565 0
DWIDTH 11 0
BBX 11 13 0 0
BITMAP
CE00
CE00
8F00
1B00
1B00
1980
3180
3180
3F80
7FC0
60C0
60C0
60E0
ENDCHAR
STARTCHAR 0387
ENCODING 903
SWIDTH 257 0
DWIDTH 5 0
BBX 2 3 2 5
BITMAP
C0
C0
C0
ENDCHAR
STARTCHAR 0388
ENCODING 904
SWIDTH 668 0
DWIDTH 13 0
BBX 13 13 0 0
BITMAP
47F8
C7F8
8600
0600
0600
07F8
07F8
0600
0600
0600
0600
07F8
07F8
ENDCHAR
STARTCHAR 0389
ENCODING 905
SWIDTH 720 0
DWIDTH 14 0
BBX 14 13 0 0
BITMAP
C61C
C61C
861C
061C
061C
07FC
07FC
061C
061C
061C
061C
061C
061C
ENDCHAR
STARTCHAR 038A
ENCODING 906
SWIDTH 360 0
DWIDTH 7 0
BBX 7 13 0 0
BITMAP
C6
C6
86
06
06
06
06
06
06
06
06
06
06
ENDCHAR
STARTCHAR 038C
ENCODING 908
SWIDTH 668 0
DWIDTH 13 0
BBX 13 13 -1 0
BITMAP
63C0
4FF0
DC30
1838
1818
1818
1818
1818
1818
1838
1C30
0FF0
03C0
ENDCHAR
STARTCHAR 038E
ENCODING 910
SWIDTH 720 0
DWIDTH 14 0
BBX 14 13 1 0
BITMAP
CE1C
C618
8718
0330
03B0
01E0
01E0
00C0
00C0
00C0
00C0
00C0
00C0
ENDCHAR
STARTCHAR 038F
ENCODING 911
SWIDTH 668 0
DWIDTH 13 0
BBX 14 13 -1 0
BITMAP
67E0
CFF0
9C38
1818
1818
1818
1818
1818
1838
0C70
06E0
3EFC
3EFC
ENDCHAR
STARTCHAR 0390
ENCODING 912
SWIDTH 205 0
DWIDTH 4 0
BBX 5 15 -1 0
BITMAP
60
40
D0
D0
00
30
30
30
30
30
30
30
30
30
38
ENDCHAR
STARTCHAR 0391
ENCODING 913
SWIDTH 565 0
DWIDTH 11 0
BBX 10 13 1 0
BITMAP
1C00
1C00
1E00
3600
3600
3300
6300
6300
7F00
FF80
C180
C180
C1C0
ENDCHAR
STARTCHAR 0392
ENCODING 914
SWIDTH 565 0
DWIDTH 11 0
BBX 10 13 1 0
BITMAP
FE00
FF80
C380
C180
C380
FF00
FF00
C180
C1C0
C1C0
C180
FF80
FF00
ENDCHAR
STARTCHAR 0393
ENCODING 915
SWIDTH 462 0
DWIDTH 9 0
BBX 8 13 1 0
BITMAP
FF
FF
C0
C0
C0
C0
C0
C0
C0
C0
C0
C0
C0
ENDCHAR
STARTCHAR 0394
ENCODING 916
SWIDTH 565 0
DWIDTH 11 0
BBX 10 13 1 0
BITMAP
1C00
1C00
3E00
3600
3600
7300
6300
6300
6380
C180
C180
FFC0
FFC0
ENDCHAR
STARTCHAR 0395
ENCODING 917
SWIDTH 514 0
DWIDTH 10 0
BBX 9 13 1 0
BITMAP
FF00
FF00
C000
C000
C000
FF00
FF00
C000
C000
C000
C000
FF80
FF80
ENDCHAR
STARTCHAR 0396
ENCODING 918
SWIDTH 514 0
DWIDTH 10 0
BBX 9 13 0 0
BITMAP
7F80
7F80
0300
0700
0600
0C00
1C00
1800
3800
7000
6000
FF80
FF80
ENDCHAR
STARTCHAR 0397
ENCODING 919
SWIDTH 565 0
DWIDTH 11 0
BBX 9 13 1 0
BITMAP
C180
C180
C180
C180
C180
FF80
FF80
C180
C180
C180
C180
C180
C180
ENDCHAR
STARTCHAR 0398
ENCODING 920
SWIDTH 617 0
DWIDTH 12 0
BBX 10 13 1 0
BITMAP
1F00
7F80
E1C0
C0C0
C0C0
DEC0
DEC0
C0C0
C0C0
E1C0
6180
7F80
1E00
ENDCHAR
STARTCHAR 0399
ENCODING 921
SWIDTH 205 0
DWIDTH 4 0
BBX 2 13 1 0
BITMAP
C0
C0
C0
C0
C0
C0
C0
C0
C0
C0
C0
C0
C0
ENDCHAR
STARTCHAR 039A
ENCODING 922
SWIDTH 565 0
DWIDTH 11 0
BBX 10 13 1 0
BITMAP
C180
C300
C700
CE00
DC00
D800
FC00
EC00
C600
C700
C300
C380
C1C0
ENDCHAR
STARTCHAR 039B
ENCODING 923
SWIDTH 514 0
DWIDTH 10 0
BBX 10 13 0 0
BITMAP
0C00
0E00
1E00
1E00
1B00
3300
3300
3380
7180
6180
61C0
60C0
E0C0
ENDCHAR
STARTCHAR 039C
ENCODING 924
SWIDTH 668 0
DWIDTH 13 0
BBX 11 13 1 0
BITMAP
E0E0
E0E0
F1E0
F1E0
F1E0
D960
DB60
DB60
DA60
CA60
CE60
CE60
C460
ENDCHAR
STARTCHAR 039D
ENCODING 925
SWIDTH 565 0
DWIDTH 11 0
BBX 9 13 1 0
BITMAP
E180
E180
F180
F180
D980
D980
CD80
CD80
CF80
C780
C780
C380
C380
ENDCHAR
STARTCHAR 039E
ENCODING 926
SWIDTH 514 0
DWIDTH 10 0
BBX 8 13 1 0
BITMAP
FF
FF
00
00
00
7E
7E
00
00
00
00
FF
FF
ENDCHAR
STARTCHAR 039F
ENCODING 927
SWIDTH 617 0
DWIDTH 12 0
BBX 10 13 1 0
BITMAP
1E00
7F80
61C0
E0C0
C0C0
C0C0
C0C0
C0C0
C0C0
E0C0
61C0
7F80
1E00
ENDCHAR
STARTCHAR 03A0
ENCODING 928
SWIDTH 565 0
DWIDTH 11 0
BBX 9 13 1 0
BITMAP
FF80
FF80
C180
C180
C180
C180
C180
C180
C180
C180
C180
C180
C180
ENDCHAR
STARTCHAR 03A1
ENCODING 929
SWIDTH 514 0
DWIDTH 10 0
BBX 9 13 1 0
BITMAP
FE00
FF00
C380
C180
C180
C380
FF00
FE00
C000
C000
C000
C000
C000
ENDCHAR
STARTCHAR 03A3
ENCODING 931
SWIDTH 462 0
DWIDTH 9 0
BBX 8 13 1 0
BITMAP
FE
FE
E0
60
30
18
18
30
70
60
C0
FF
FF
ENDCHAR
STARTCHAR 03A4
ENCODING 932
SWIDTH 514 0
DWIDTH 10 0
BBX 9 13 0 0
BITMAP
FF80
FF80
0C00
0C00
0C00
0C00
0C00
0C00
0C00
0C00
0C00
0C00
0C00
ENDCHAR
STARTCHAR 03A5
ENCODING 933
SWIDTH 514 0
DWIDTH 10 0
BBX 9 13 1 0
BITMAP
C180
C300
6300
6600
7600
3C00
3C00
1800
1800
1800
1800
1800
1800
ENDCHAR
STARTCHAR 03A6
ENCODING 934
SWIDTH 668 0
DWIDTH 13 0
BBX 12 13 0 0
BITMAP
0600
1FC0
7FE0
7670
6630
E630
E630
6630
7670
3FE0
1FC0
0600
0600
ENDCHAR
STARTCHAR 03A7
ENCODING 935
SWIDTH 514 0
DWIDTH 10 0
BBX 10 13 0 0
BITMAP
61C0
7180
3380
3B00
1F00
1E00
0E00
1E00
1B00
3300
7180
6180
E0C0
ENDCHAR
STARTCHAR 03A8
ENCODING 936
SWIDTH 668 0
DWIDTH 13 0
BBX 11 13 1 0
BITMAP
CC60
CC60
CC60
CC60
CC60
CC60
ECE0
7FC0
3F80
0C00
0C00
0C00
0C00
ENDCHAR
STARTCHAR 03A9
ENCODING 937
SWIDTH 617 0
DWIDTH 12 0
BBX 11 13 1 0
BITMAP
1F00
7F80
61C0
E0C0
C0E0
C0E0
C0E0
C0C0
E0C0
7180
3B00
FBE0
FBE0
ENDCHAR
STARTCHAR 03AA
ENCODING 938
SWIDTH 205 0
DWIDTH 4 0
BBX 5 16 0 0
BITMAP
98
98
00
60
60
60
60
60
60
60
60
60
60
60
60
60
ENDCHAR
STARTCHAR 03AB
ENCODING 939
SWIDTH 514 0
DWIDTH 10 0
BBX 9 16 1 0
BITMAP
3200
3200
0000
C180
C300
6300
6600
7600
3C00
3C00
1800
1800
1800
1800
1800
1800
ENDCHAR
STARTCHAR 03AC
ENCODING 940
SWIDTH 514 0
DWIDTH 10 0
BBX 8 14 1 0
BITMAP
0C
08
08
00
7B
FB
CF
C6
C6
C6
C6
CF
FB
73
ENDCHAR
STARTCHAR 03AD
ENCODING 941
SWIDTH 360 0
DWIDTH 7 0
BBX 6 14 1 0
BITMAP
18
10
10
00
78
FC
C8
C0
F0
F0
C0
C4
FC
78
ENDCHAR
STARTCHAR 03AE
ENCODING 942
SWIDTH 514 0
DWIDTH 10 0
BBX 8 18 1 -4
BITMAP
0C
0C
08
00
DE
FE
E6
C7
C7
C7
C7
C7
C7
C7
07
07
07
07
ENDCHAR
STARTCHAR 03AF
ENCODING 943
SWIDTH 205 0
DWIDTH 4 0
BBX 3 14 1 0
BITMAP
60
40
80
00
C0
C0
C0
C0
C0
C0
C0
C0
C0
E0
ENDCHAR
STARTCHAR 03B0
ENCODING 944
SWIDTH 462 0
DWIDTH 9 0
BBX 7 15 1 0
BITMAP
30
20
68
68
00
C6
C6
C6
C6
C6
C6
C6
E6
FE
7C
ENDCHAR
STARTCHAR 03B1
ENCODING 945
SWIDTH 514 0
DWIDTH 10 0
BBX 8 10 1 0
BITMAP
7B
FB
CF
C6
C6
C6
C6
CF
FB
73
ENDCHAR
STARTCHAR 03B2
ENCODING 946
SWIDTH 514 0
DWIDTH 10 0
BBX 8 18 1 -4
BITMAP
3C
7E
E6
C6
C6
C6
DC
DE
C7
C3
C3
C7
FE
DC
C0
C0
C0
C0
ENDCHAR
STARTCHAR 03B3
ENCODING 947
SWIDTH 462 0
DWIDTH 9 0
BBX 8 14 0 -4
BITMAP
C3
63
63
66
36
36
36
3C
1C
1C
18
18
18
18
ENDCHAR
STARTCHAR 03B4
ENCODING 948
SWIDTH 462 0
DWIDTH 9 0
BBX 8 14 1 0
BITMAP
7E
7E
30
38
1C
7E
E6
C7
C3
C3
C7
C6
7E
3C
ENDCHAR
STARTCHAR 03B5
ENCODING 949
SWIDTH 360 0
DWIDTH 7 0
BBX 6 10 1 0
BITMAP
78
FC
C8
C0
F0
F0
C0
C4
FC
78
ENDCHAR
STARTCHAR 03B6
ENCODING 950
SWIDTH 360 0
DWIDTH 7 0
BBX 6 17 1 -4
BITMAP
FC
FC
18
10
30
60
60
C0
C0
80
80
C0
F8
7C
0C
0C
0C
ENDCHAR
STARTCHAR 03B7
ENCODING 951
SWIDTH 514 0
DWIDTH 10 0
BBX 8 14 1 -4
BITMAP
DE
FE
E6
C7
C7
C7
C7
C7
C7
C7
07
07
07
07
ENDCHAR
STARTCHAR 03B8
ENCODING 952
SWIDTH 411 0
DWIDTH 8 0
BBX 7 14 1 0
BITMAP
38
7C
CC
CC
C6
C6
FE
FE
C6
C6
CC
CC
7C
38
ENDCHAR
STARTCHAR 03B9
ENCODING 953
SWIDTH 205 0
DWIDTH 4 0
BBX 3 10 1 0
BITMAP
C0
C0
C0
C0
C0
C0
C0
C0
C0
E0
ENDCHAR
STARTCHAR 03BA
ENCODING 954
SWIDTH 462 0
DWIDTH 9 0
BBX 7 10 1 0
BITMAP
C6
CC
CC
D8
F8
F8
CC
CC
C6
C6
ENDCHAR
STARTCHAR 03BB
ENCODING 955
SWIDTH 462 0
DWIDTH 9 0
BBX 8 14 0 0
BITMAP
70
78
18
18
0C
1C
1C
16
36
36
76
63
63
E3
ENDCHAR
STARTCHAR 03BC
ENCODING 956
SWIDTH 514 0
DWIDTH 10 0
BBX 7 13 1 -3
BITMAP
C6
C6
C6
C6
C6
C6
C6
E6
FE
FE
C0
C0
C0
ENDCHAR
STARTCHAR 03BD
ENCODING 957
SWIDTH 462 0
DWIDTH 9 0
BBX 8 10 0 0
BITMAP
C3
E3
63
63
63
36
36
3C
1C
18
ENDCHAR
STARTCHAR 03BE
ENCODING 958
SWIDTH 360 0
DWIDTH 7 0
BBX 6 17 1 -4
BITMAP
F8
F8
60
40
40
70
18
70
C0
C0
80
C0
F8
7C
0C
0C
0C
ENDCHAR
STARTCHAR 03BF
ENCODING 959
SWIDTH 514 0
DWIDTH 10 0
BBX 8 10 1 0
BITMAP
3C
7E
E7
C3
C3
C3
C3
E6
7E
3C
ENDCHAR
STARTCHAR 03C0
ENCODING 960
SWIDTH 617 0
DWIDTH 12 0
BBX 12 10 0 0
BITMAP
FFF0
FFF0
3980
3980
3980
3180
3180
31C0
31E0
30E0
ENDCHAR
STARTCHAR 03C1
ENCODING 961
SWIDTH 514 0
DWIDTH 10 0
BBX 8 14 1 -4
BITMAP
3C
7E
E6
C3
C3
C3
C3
E7
FE
DC
C0
C0
C0
C0
ENDCHAR
STARTCHAR 03C2
ENCODING 962
SWIDTH 411 0
DWIDTH 8 0
BBX 6 14 1 -4
BITMAP
38
7C
E4
C0
C0
C0
C0
C0
F0
7C
3C
04
04
0C
ENDCHAR
STARTCHAR 03C3
ENCODING 963
SWIDTH 565 0
DWIDTH 11 0
BBX 9 10 1 0
BITMAP
3F80
7F80
E600
C600
C300
C300
C300
E700
FE00
3C00
ENDCHAR
STARTCHAR 03C4
ENCODING 964
SWIDTH 360 0
DWIDTH 7 0
BBX 7 10 0 0
BITMAP
FE
FE
30
30
30
30
30
30
3C
1C
ENDCHAR
STARTCHAR 03C5
ENCODING 965
SWIDTH 462 0
DWIDTH 9 0
BBX 7 10 1 0
BITMAP
C6
C6
C6
C6
C6
C6
C6
E6
FE
7C
ENDCHAR
STARTCHAR 03C6
ENCODING 966
SWIDTH 565 0
DWIDTH 11 0
BBX 10 15 1 -4
BITMAP
2700
6F80
CD80
C980
C9C0
C9C0
C980
C980
E980
7F00
3E00
0800
0800
0800
0800
ENDCHAR
STARTCHAR 03C7
ENCODING 967
SWIDTH 462 0
DWIDTH 9 0
BBX 9 14 0 -4
BITMAP
E300
F300
3600
3600
1E00
1C00
1C00
1C00
1E00
3600
3600
6300
6300
E380
ENDCHAR
STARTCHAR 03C8
ENCODING 968
SWIDTH 617 0
DWIDTH 12 0
BBX 10 16 1 -4
BITMAP
0C00
0C00
CCC0
CCC0
CCC0
CCC0
CCC0
CCC0
CCC0
EDC0
7F80
3F00
0C00
0C00
0C00
0C00
ENDCHAR
STARTCHAR 03C9
ENCODING 969
SWIDTH 668 0
DWIDTH 13 0
BBX 12 10 1 0
BITMAP
3080
71C0
C060
C060
C670
C670
C660
CE60
FBE0
79C0
ENDCHAR
STARTCHAR 03CA
ENCODING 970
SWIDTH 205 0
DWIDTH 4 0
BBX 5 13 0 0
BITMAP
98
98
00
60
60
60
60
60
60
60
60
60
70
ENDCHAR
STARTCHAR 03CB
ENCODING 971
SWIDTH 462 0
DWIDTH 9 0
BBX 7 13 1 0
BITMAP
64
64
00
C6
C6
C6
C6
C6
C6
C6
E6
FE
7C
ENDCHAR
STARTCHAR 03CC
ENCODING 972
SWIDTH 514 0
DWIDTH 10 0
BBX 8 14 1 0
BITMAP
0C
08
08
00
3C
7E
E7
C3
C3
C3
C3
E6
7E
3C
ENDCHAR
STARTCHAR 03CD
ENCODING 973
SWIDTH 462 0
DWIDTH 9 0
BBX 7 14 1 0
BITMAP
18
18
10
00
C6
C6
C6
C6
C6
C6
C6
E6
FE
7C
ENDCHAR
STARTCHAR 03CE
ENCODING 974
SWIDTH 668 0
DWIDTH 13 0
BBX 12 14 1 0
BITMAP
0300
0300
0200
0000
3080
71C0
C060
C060
C670
C670
C660
CE60
FBE0
79C0
ENDCHAR
STARTCHAR 0401
ENCODING 1025
SWIDTH 514 0
DWIDTH 10 0
BBX 9 16 1 0
BITMAP
1300
1300
0000
FF00
FF00
C000
C000
C000
FF00
FF00
C000
C000
C000
C000
FF80
FF80
ENDCHAR
STARTCHAR 0402
ENCODING 1026
SWIDTH 720 0
DWIDTH 14 0
BBX 13 13 0 0
BITMAP
FF80
FF80
0C00
0C00
0DF0
0FF0
0C38
0C18
0C18
0C18
0C98
0DF0
0CF0
ENDCHAR
STARTCHAR 0403
ENCODING 1027
SWIDTH 462 0
DWIDTH 9 0
BBX 8 17 1 0
BITMAP
06
0C
18
00
FF
FF
C0
C0
C0
C0
C0
C0
C0
C0
C0
C0
C0
ENDCHAR
STARTCHAR 0404
ENCODING 1028
SWIDTH 565 0
DWIDTH 11 0
BBX 10 13 1 0
BITMAP
3E00
7F80
E180
C180
C000
FC00
FC00
C000
C000
E1C0
6380
7F00
1E00
ENDCHAR
STARTCHAR 0405
ENCODING 1029
SWIDTH 514 0
DWIDTH 10 0
BBX 9 13 1 0
BITMAP
3E00
7F00
C300
C200
E000
FC00
7F00
0700
0380
C180
C380
FF00
3E00
ENDCHAR
STARTCHAR 0406
ENCODING 1030
SWIDTH 205 0
DWIDTH 4 0
BBX 2 13 1 0
BITMAP
C0
C0
C0
C0
C0
C0
C0
C0
C0
C0
C0
C0
C0
ENDCHAR
STARTCHAR 0407
ENCODING 1031
SWIDTH 205 0
DWIDTH 4 0
BBX 5 16 0 0
BITMAP
98
98
00
60
60
60
60
60
60
60
60
60
60
60
60
60
ENDCHAR
STARTCHAR 0408
ENCODING 1032
SWIDTH 462 0
DWIDTH 9 0
BBX 8 13 0 0
BITMAP
1F
1F
07
07
07
07
07
07
07
E7
E6
7E
3C
ENDCHAR
STARTCHAR 0409
ENCODING 1033
SWIDTH 874 0
DWIDTH 17 0
BBX 16 13 0 0
BITMAP
1FC0
3FC0
39C0
31C0
31C0
31FE
31FF
31C3
31C3
71C3
61C3
E1FF
C1FE
ENDCHAR
STARTCHAR 040A
ENCODING 1034
SWIDTH 874 0
DWIDTH 17 0
BBX 15 13 1 0
BITMAP
C380
C380
C380
C380
C380
FFF8
FFFC
C38E
C386
C386
C38E
C3FC
C3F8
ENDCHAR
STARTCHAR 040B
ENCODING 1035
SWIDTH 720 0
DWIDTH 14 0
BBX 13 13 0 0
BITMAP
FF80
FF80
0C00
0C00
0FE0
0FF0
0C30
0C38
0C38
0C38
0C38
0C38
0C38
ENDCHAR
STARTCHAR 040C
ENCODING 1036
SWIDTH 514 0
DWIDTH 10 0
BBX 8 17 1 0
BITMAP
06
0C
08
00
C3
C6
C6
CC
DC
F8
F8
DC
CC
CE
C6
C7
C3
ENDCHAR
STARTCHAR 040E
ENCODING 1038
SWIDTH 514 0
DWIDTH 10 0
BBX 10 17 0 0
BITMAP
3100
3300
1E00
0000
E1C0
6180
6180
3300
3300
1F00
1E00
0E00
0C00
0C00
1C00
7800
7000
ENDCHAR
STARTCHAR 040F
ENCODING 1039
SWIDTH 565 0
DWIDTH 11 0
BBX 9 17 1 -4
BITMAP
C180
C180
C180
C180
C180
C180
C180
C180
C180
C180
C180
FF80
FF80
0C00
0C00
0C00
0C00
ENDCHAR
STARTCHAR 0410
ENCODING 1040
SWIDTH 565 0
DWIDTH 11 0
BBX 10 13 1 0
BITMAP
1C00
1C00
1E00
3600
3600
3300
6300
6300
7F00
FF80
C180
C180
C1C0
ENDCHAR
STARTCHAR 0411
ENCODING 1041
SWIDTH 565 0
DWIDTH 11 0
BBX 10 13 1 0
BITMAP
FF00
FF00
C000
C000
C000
FF00
FF80
C180
C1C0
C1C0
C180
FF80
FF00
ENDCHAR
STARTCHAR 0412
ENCODING 1042
SWIDTH 565 0
DWIDTH 11 0
BBX 10 13 1 0
BITMAP
FE00
FF80
C380
C180
C380
FF00
FF00
C180
C1C0
C1C0
C180
FF80
FF00
ENDCHAR
STARTCHAR 0413
ENCODING 1043
SWIDTH 462 0
DWIDTH 9 0
BBX 8 13 1 0
BITMAP
FF
FF
C0
C0
C0
C0
C0
C0
C0
C0
C0
C0
C0
ENDCHAR
STARTCHAR 0414
ENCODING 1044
SWIDTH 565 0
DWIDTH 11 0
BBX 11 17 0 -4
BITMAP
1F80
1F80
1980
1980
1980
1980
1980
3980
3180
3180
3180
FFE0
FFE0
C060
C060
C060
C060
ENDCHAR
STARTCHAR 0415
ENCODING 1045
SWIDTH 514 0
DWIDTH 10 0
BBX 9 13 1 0
BITMAP
FF00
FF00
C000
C000
C000
FF00
FF00
C000
C000
C000
C000
FF80
FF80
ENDCHAR
STARTCHAR 0416
ENCODING 1046
SWIDTH 720 0
DWIDTH 14 0
BBX 14 13 0 0
BITMAP
631C
6318
3338
3330
1B60
1FE0
1FE0
1B70
3330
3338
6318
6318
E30C
ENDCHAR
STARTCHAR 0417
ENCODING 1047
SWIDTH 514 0
DWIDTH 10 0
BBX 9 13 0 0
BITMAP
1E00
3F00
6380
6180
0300
0F00
0F00
0380
0180
E180
6380
7F00
1E00
ENDCHAR
STARTCHAR 0418
ENCODING 1048
SWIDTH 565 0
DWIDTH 11 0
BBX 9 13 1 0
BITMAP
C380
C380
C780
C780
C780
CD80
CD80
D980
D980
F180
F180
E180
E180
ENDCHAR
STARTCHAR 0419
ENCODING 1049
SWIDTH 565 0
DWIDTH 11 0
BBX 9 17 1 0
BITMAP
3100
1300
1E00
0000
C380
C380
C780
C780
C780
CD80
CD80
D980
D980
F180
F180
E180
E180
ENDCHAR
STARTCHAR 041A
ENCODING 1050
SWIDTH 514 0
DWIDTH 10 0
BBX 8 13 1 0
BITMAP
C3
C6
C6
CC
DC
F8
F8
DC
CC
CE
C6
C7
C3
ENDCHAR
STARTCHAR 041B
ENCODING 1051
SWIDTH 565 0
DWIDTH 11 0
BBX 10 13 0 0
BITMAP
1FC0
3FC0
38C0
30C0
30C0
30C0
30C0
30C0
30C0
70C0
60C0
E0C0
E0C0
ENDCHAR
STARTCHAR 041C
ENCODING 1052
SWIDTH 668 0
DWIDTH 13 0
BBX 11 13 1 0
BITMAP
E0E0
E0E0
F1E0
F1E0
F1E0
D960
DB60
DB60
DA60
CA60
CE60
CE60
C460
ENDCHAR
STARTCHAR 041D
ENCODING 1053
SWIDTH 565 0
DWIDTH 11 0
BBX 9 13 1 0
BITMAP
C180
C180
C180
C180
C180
FF80
FF80
C180
C180
C180
C180
C180
C180
ENDCHAR
STARTCHAR 041E
ENCODING 1054
SWIDTH 617 0
DWIDTH 12 0
BBX 10 13 1 0
BITMAP
1E00
7F80
61C0
E0C0
C0C0
C0C0
C0C0
C0C0
C0C0
E0C0
61C0
7F80
1E00
ENDCHAR
STARTCHAR 041F
ENCODING 1055
SWIDTH 565 0
DWIDTH 11 0
BBX 9 13 1 0
BITMAP
FF80
FF80
C180
C180
C180
C180
C180
C180
C180
C180
C180
C180
C180
ENDCHAR
STARTCHAR 0420
ENCODING 1056
SWIDTH 514 0
DWIDTH 10 0
BBX 9 13 1 0
BITMAP
FE00
FF00
C380
C180
C180
C380
FF00
FE00
C000
C000
C000
C000
C000
ENDCHAR
STARTCHAR 0421
ENCODING 1057
SWIDTH 565 0
DWIDTH 11 0
BBX 10 13 1 0
BITMAP
3E00
7F80
E180
C1C0
C000
C000
C000
C000
C000
E1C0
6180
7F80
1E00
ENDCHAR
STARTCHAR 0422
ENCODING 1058
SWIDTH 514 0
DWIDTH 10 0
BBX 9 13 0 0
BITMAP
FF80
FF80
0C00
0C00
0C00
0C00
0C00
0C00
0C00
0C00
0C00
0C00
0C00
ENDCHAR
STARTCHAR 0423
ENCODING 1059
SWIDTH 514 0
DWIDTH 10 0
BBX 10 13 0 0
BITMAP
E1C0
6180
7180
3300
3B00
1B00
1E00
0E00
0C00
0C00
1C00
7800
7000
ENDCHAR
STARTCHAR 0424
ENCODING 1060
SWIDTH 668 0
DWIDTH 13 0
BBX 12 13 1 0
BITMAP
0600
3FC0
7FE0
E660
C670
C670
C670
C670
E660
7FE0
3F80
0600
0600
ENDCHAR
STARTCHAR 0425
ENCODING 1061
SWIDTH 514 0
DWIDTH 10 0
BBX 10 13 0 0
BITMAP
61C0
7180
3380
3B00
1F00
1E00
0E00
1E00
1B00
3300
7180
6180
E0C0
ENDCHAR
STARTCHAR 0426
ENCODING 1062
SWIDTH 565 0
DWIDTH 11 0
BBX 10 17 1 -4
BITMAP
C180
C180
C180
C180
C180
C180
C180
C180
C180
C180
C180
FFC0
FFC0
00C0
00C0
00C0
00C0
ENDCHAR
STARTCHAR 0427
ENCODING 1063
SWIDTH 565 0
DWIDTH 11 0
BBX 9 13 1 0
BITMAP
C180
C180
C180
C180
C180
C180
E180
FF80
7D80
0180
0180
0180
0180
ENDCHAR
STARTCHAR 0428
ENCODING 1064
SWIDTH 822 0
DWIDTH 16 0
BBX 14 13 1 0
BITMAP
C31C
C31C
C31C
C31C
C31C
C31C
C31C
C31C
C31C
C31C
C31C
FFFC
FFFC
ENDCHAR
STARTCHAR 0429
ENCODING 1065
SWIDTH 822 0
DWIDTH 16 0
BBX 15 17 1 -4
BITMAP
C318
C318
C318
C318
C318
C318
C318
C318
C318
C318
C318
FFFE
FFFE
0006
0006
0006
0006
ENDCHAR
STARTCHAR 042A
ENCODING 1066
SWIDTH 720 0
DWIDTH 14 0
BBX 13 13 0 0
BITMAP
FC00
FC00
0C00
0C00
0C00
0FE0
0FF0
0C38
0C18
0C18
0C38
0FF0
0FE0
ENDCHAR
STARTCHAR 042B
ENCODING 1067
SWIDTH 822 0
DWIDTH 16 0
BBX 13 13 1 0
BITMAP
C018
C018
C018
C018
C018
FF18
FF98
C198
C1D8
C1D8
C198
FF98
FF18
ENDCHAR
STARTCHAR 042C
ENCODING 1068
SWIDTH 565 0
DWIDTH 11 0
BBX 10 13 1 0
BITMAP
C000
C000
C000
C000
C000
FF00
FF80
C180
C1C0
C1C0
C180
FF80
FF00
ENDCHAR
STARTCHAR 042D
ENCODING 1069
SWIDTH 565 0
DWIDTH 11 0
BBX 9 13 1 0
BITMAP
3E00
FF00
C380
C180
0180
1F80
1F80
0180
0180
C180
E300
7F00
3C00
ENDCHAR
STARTCHAR 042E
ENCODING 1070
SWIDTH 822 0
DWIDTH 16 0
BBX 14 13 1 0
BITMAP
C1F0
C3F8
C71C
C60C
C60C
FE0C
FE0C
CE0C
C60C
C60C
C718
C3F8
C1E0
ENDCHAR
STARTCHAR 042F
ENCODING 1071
SWIDTH 565 0
DWIDTH 11 0
BBX 9 13 1 0
BITMAP
3F80
FF80
E180
C180
C180
E180
7F80
3F80
3180
7180
6180
E180
C180
ENDCHAR
STARTCHAR 0430
ENCODING 1072
SWIDTH 462 0
DWIDTH 9 0
BBX 9 10 0 0
BITMAP
3C00
7E00
6700
0700
3F00
6700
E700
E700
7B80
7B80
ENDCHAR
STARTCHAR 0431
ENCODING 1073
SWIDTH 514 0
DWIDTH 10 0
BBX 8 14 1 0
BITMAP
07
3F
7C
C0
9C
BE
E7
C3
C3
C3
C3
E7
7E
3C
ENDCHAR
STARTCHAR 0432
ENCODING 1074
SWIDTH 514 0
DWIDTH 10 0
BBX 8 10 1 0
BITMAP
FE
FE
C7
C7
FE
FE
C3
C3
FF
FE
ENDCHAR
STARTCHAR 0433
ENCODING 1075
SWIDTH 360 0
DWIDTH 7 0
BBX 5 10 1 0
BITMAP
F8
F8
C0
C0
C0
C0
C0
C0
C0
C0
ENDCHAR
STARTCHAR 0434
ENCODING 1076
SWIDTH 514 0
DWIDTH 10 0
BBX 10 13 0 -3
BITMAP
1F80
1F80
3B80
3380
3380
3380
3380
6380
FFC0
FFC0
C0C0
C0C0
C0C0
ENDCHAR
STARTCHAR 0435
ENCODING 1077
SWIDTH 462 0
DWIDTH 9 0
BBX 7 10 1 0
BITMAP
78
FC
C6
FE
FE
C0
C0
C6
7C
38
ENDCHAR
STARTCHAR 0436
ENCODING 1078
SWIDTH 565 0
DWIDTH 11 0
BBX 11 10 0 0
BITMAP
C460
64C0
64C0
3580
3F80
3580
64C0
64C0
64E0
C460
ENDCHAR
STARTCHAR 0437
ENCODING 1079
SWIDTH 411 0
DWIDTH 8 0
BBX 7 10 0 0
BITMAP
3C
7E
66
06
1C
1C
06
E6
7E
3C
ENDCHAR
STARTCHAR 0438
ENCODING 1080
SWIDTH 514 0
DWIDTH 10 0
BBX 8 10 1 0
BITMAP
C7
C7
CF
CB
DB
D3
F3
F3
E3
E3
ENDCHAR
STARTCHAR 0439
ENCODING 1081
SWIDTH 514 0
DWIDTH 10 0
BBX 8 14 1 0
BITMAP
62
26
3C
00
C7
C7
CF
CB
DB
D3
F3
F3
E3
E3
ENDCHAR
STARTCHAR 043A
ENCODING 1082
SWIDTH 411 0
DWIDTH 8 0
BBX 7 10 1 0
BITMAP
CE
CC
CC
D8
F8
F8
D8
CC
CC
CE
ENDCHAR
STARTCHAR 043B
ENCODING 1083
SWIDTH 514 0
DWIDTH 10 0
BBX 9 10 0 0
BITMAP
3F80
3F80
3180
3180
3180
3180
3180
7180
E180
E180
ENDCHAR
STARTCHAR 043C
ENCODING 1084
SWIDTH 617 0
DWIDTH 12 0
BBX 9 10 1 0
BITMAP
E180
E380
F380
F280
D280
D680
DE80
DC80
CC80
CC80
ENDCHAR
STARTCHAR 043D
ENCODING 1085
SWIDTH 462 0
DWIDTH 9 0
BBX 7 10 1 0
BITMAP
C6
C6
C6
C6
FE
FE
C6
C6
C6
C6
ENDCHAR
STARTCHAR 043E
ENCODING 1086
SWIDTH 514 0
DWIDTH 10 0
BBX 8 10 1 0
BITMAP
3C
7E
E7
C3
C3
C3
C3
E6
7E
3C
ENDCHAR
STARTCHAR 043F
ENCODING 1087
SWIDTH 462 0
DWIDTH 9 0
BBX 7 10 1 0
BITMAP
FE
FE
C6
C6
C6
C6
C6
C6
C6
C6
ENDCHAR
STARTCHAR 0440
ENCODING 1088
SWIDTH 514 0
DWIDTH 10 0
BBX 8 14 1 -4
BITMAP
DC
FE
E7
C3
C3
C3
C3
E7
FE
DC
C0
C0
C0
C0
ENDCHAR
STARTCHAR 0441
ENCODING 1089
SWIDTH 462 0
DWIDTH 9 0
BBX 7 10 1 0
BITMAP
38
7C
C6
C0
C0
C0
C6
C6
FC
38
ENDCHAR
STARTCHAR 0442
ENCODING 1090
SWIDTH 411 0
DWIDTH 8 0
BBX 7 10 0 0
BITMAP
FE
FE
18
18
18
18
18
18
18
18
ENDCHAR
STARTCHAR 0443
ENCODING 1091
SWIDTH 462 0
DWIDTH 9 0
BBX 8 14 0 -4
BITMAP
E3
63
63
66
36
36
36
1C
1C
1C
18
18
78
70
ENDCHAR
STARTCHAR 0444
ENCODING 1092
SWIDTH 720 0
DWIDTH 14 0
BBX 12 18 1 -4
BITMAP
0600
0600
0600
0600
76E0
FFE0
CE70
C630
C630
C630
C630
CE70
FFE0
76E0
0600
0600
0600
0600
ENDCHAR
STARTCHAR 0445
ENCODING 1093
SWIDTH 462 0
DWIDTH 9 0
BBX 8 10 0 0
BITMAP
63
67
36
3C
1C
1C
3C
36
67
E3
ENDCHAR
STARTCHAR 0446
ENCODING 1094
SWIDTH 514 0
DWIDTH 10 0
BBX 8 13 1 -3
BITMAP
C6
C6
C6
C6
C6
C6
C6
C6
FF
FF
01
01
01
ENDCHAR
STARTCHAR 0447
ENCODING 1095
SWIDTH 462 0
DWIDTH 9 0
BBX 7 10 1 0
BITMAP
C6
C6
C6
C6
C6
FE
76
06
06
06
ENDCHAR
STARTCHAR 0448
ENCODING 1096
SWIDTH 668 0
DWIDTH 13 0
BBX 11 10 1 0
BITMAP
CC60
CC60
CC60
CC60
CC60
CC60
CC60
CC60
FFE0
FFE0
ENDCHAR
STARTCHAR 0449
ENCODING 1097
SWIDTH 668 0
DWIDTH 13 0
BBX 12 13 1 -3
BITMAP
CC60
CC60
CC60
CC60
CC60
CC60
CC60
CC60
FFF0
FFF0
0030
0030
0030
ENDCHAR
STARTCHAR 044A
ENCODING 1098
SWIDTH 565 0
DWIDTH 11 0
BBX 11 10 0 0
BITMAP
F800
F800
1800
1800
1FC0
1FC0
18E0
18E0
1FC0
1F80
ENDCHAR
STARTCHAR 044B
ENCODING 1099
SWIDTH 720 0
DWIDTH 14 0
BBX 12 10 1 0
BITMAP
C030
C030
C030
C030
FE30
FF30
C330
C330
FF30
FE30
ENDCHAR
STARTCHAR 044C
ENCODING 1100
SWIDTH 514 0
DWIDTH 10 0
BBX 8 10 1 0
BITMAP
C0
C0
C0
C0
FE
FF
C3
C3
FF
FE
ENDCHAR
STARTCHAR 044D
ENCODING 1101
SWIDTH 462 0
DWIDTH 9 0
BBX 7 10 1 0
BITMAP
78
FC
CE
06
3E
3E
06
CE
FC
78
ENDCHAR
STARTCHAR 044E
ENCODING 1102
SWIDTH 668 0
DWIDTH 13 0
BBX 12 10 1 0
BITMAP
C3C0
C7E0
CE60
CC70
FC70
FC70
CC70
CE60
C7E0
C3C0
ENDCHAR
STARTCHAR 044F
ENCODING 1103
SWIDTH 462 0
DWIDTH 9 0
BBX 8 10 0 0
BITMAP
3F
7F
63
63
7F
3F
33
73
63
E3
ENDCHAR
STARTCHAR 0451
ENCODING 1105
SWIDTH 462 0
DWIDTH 9 0
BBX 7 13 1 0
BITMAP
64
64
00
78
FC
C6
FE
FE
C0
C0
C6
7C
38
ENDCHAR
STARTCHAR 0452
ENCODING 1106
SWIDTH 514 0
DWIDTH 10 0
BBX 9 18 0 -4
BITMAP
6000
FC00
FC00
6000
6E00
6F00
7300
6380
6380
6380
6380
6380
6380
6380
0380
0380
0700
0700
ENDCHAR
STARTCHAR 0453
ENCODING 1107
SWIDTH 360 0
DWIDTH 7 0
BBX 5 14 1 0
BITMAP
18
10
20
00
F8
F8
C0
C0
C0
C0
C0
C0
C0
C0
ENDCHAR
STARTCHAR 0454
ENCODING 1108
SWIDTH 462 0
DWIDTH 9 0
BBX 7 10 1 0
BITMAP
38
7C
C6
C0
F0
F0
C0
C6
FE
38
ENDCHAR
STARTCHAR 0455
ENCODING 1109
SWIDTH 462 0
DWIDTH 9 0
BBX 7 10 1 0
BITMAP
78
FC
C6
E0
FC
3E
06
C6
FE
7C
ENDCHAR
STARTCHAR 0456
ENCODING 1110
SWIDTH 205 0
DWIDTH 4 0
BBX 2 14 1 0
BITMAP
C0
C0
00
00
C0
C0
C0
C0
C0
C0
C0
C0
C0
C0
ENDCHAR
STARTCHAR 0457
ENCODING 1111
SWIDTH 205 0
DWIDTH 4 0
BBX 5 13 0 0
BITMAP
98
98
00
60
60
60
60
60
60
60
60
60
60
ENDCHAR
STARTCHAR 0458
ENCODING 1112
SWIDTH 205 0
DWIDTH 4 0
BBX 3 18 0 -4
BITMAP
60
60
00
00
60
60
60
60
60
60
60
60
60
60
60
60
E0
C0
ENDCHAR
STARTCHAR 0459
ENCODING 1113
SWIDTH 771 0
DWIDTH 15 0
BBX 14 10 0 0
BITMAP
3F80
3F80
3180
3180
31F8
31FC
318C
718C
E1FC
E1F8
ENDCHAR
STARTCHAR 045A
ENCODING 1114
SWIDTH 720 0
DWIDTH 14 0
BBX 12 10 1 0
BITMAP
C600
C600
C600
C600
FFE0
FFF0
C630
C630
C7F0
C7E0
ENDCHAR
STARTCHAR 045B
ENCODING 1115
SWIDTH 514 0
DWIDTH 10 0
BBX 9 14 0 0
BITMAP
6000
FC00
FC00
6000
6E00
6F00
7300
6380
6380
6380
6380
6380
6380
6380
ENDCHAR
STARTCHAR 045C
ENCODING 1116
SWIDTH 411 0
DWIDTH 8 0
BBX 7 14 1 0
BITMAP
0C
18
10
00
CE
CC
CC
D8
F8
F8
D8
CC
CC
CE
ENDCHAR
STARTCHAR 045E
ENCODING 1118
SWIDTH 462 0
DWIDTH 9 0
BBX 8 18 0 -4
BITMAP
23
33
1E
00
E3
63
63
66
36
36
36
1C
1C
1C
18
18
78
70
ENDCHAR
STARTCHAR 045F
ENCODING 1119
SWIDTH 462 0
DWIDTH 9 0
BBX 7 13 1 -3
BITMAP
C6
C6
C6
C6
C6
C6
C6
C6
FE
FE
18
18
18
ENDCHAR
STARTCHAR 0490
ENCODING 1168
SWIDTH 462 0
DWIDTH 9 0
BBX 7 16 1 0
BITMAP
06
06
06
FE
FE
E0
E0
E0
E0
E0
E0
E0
E0
E0
E0
E0
ENDCHAR
STARTCHAR 0491
ENCODING 1169
SWIDTH 360 0
DWIDTH 7 0
BBX 5 13 1 0
BITMAP
18
18
18
F8
F8
C0
C0
C0
C0
C0
C0
C0
C0
ENDCHAR
STARTCHAR 1E80
ENCODING 7808
SWIDTH 771 0
DWIDTH 15 0
BBX 15 17 0 0
BITMAP
0300
0180
00C0
0000
C38E
E38C
638C
678C
66CC
66DC
66D8
34D8
34D8
3C58
3C70
3C70
1C70
ENDCHAR
STARTCHAR 1E81
ENCODING 7809
SWIDTH 617 0
DWIDTH 12 0
BBX 12 14 0 0
BITMAP
0C00
0600
0300
0000
C630
C730
CF30
6F20
6D60
6960
69E0
39E0
39C0
30C0
ENDCHAR
STARTCHAR 1E82
ENCODING 7810
SWIDTH 771 0
DWIDTH 15 0
BBX 15 17 0 0
BITMAP
0060
00C0
0080
0000
C38E
E38C
638C
678C
66CC
66DC
66D8
34D8
34D8
3C58
3C70
3C70
1C70
ENDCHAR
STARTCHAR 1E83
ENCODING 7811
SWIDTH 617 0
DWIDTH 12 0
BBX 12 14 0 0
BITMAP
01C0
0180
0300
0000
C630
C730
CF30
6F20
6D60
6960
69E0
39E0
39C0
30C0
ENDCHAR
STARTCHAR 1E84
ENCODING 7812
SWIDTH 771 0
DWIDTH 15 0
BBX 15 16 0 0
BITMAP
0260
0260
0000
C38E
E38C
638C
678C
66CC
66DC
66D8
34D8
34D8
3C58
3C70
3C70
1C70
ENDCHAR
STARTCHAR 1E85
ENCODING 7813
SWIDTH 617 0
DWIDTH 12 0
BBX 12 13 0 0
BITMAP
0C80
0C80
0000
C630
C730
CF30
6F20
6D60
6960
69E0
39E0
39C0
30C0
ENDCHAR
STARTCHAR 1EF2
ENCODING 7922
SWIDTH 514 0
DWIDTH 10 0
BBX 9 17 1 0
BITMAP
3800
1800
0C00
0000
C180
C300
6300
6600
7600
3C00
3C00
1800
1800
1800
1800
1800
1800
ENDCHAR
STARTCHAR 1EF3
ENCODING 7923
SWIDTH 462 0
DWIDTH 9 0
BBX 8 18 0 -4
BITMAP
30
18
0C
00
E3
63
63
66
36
36
36
1C
1C
1C
18
18
78
70
ENDCHAR
STARTCHAR 2010
ENCODING 8208
SWIDTH 257 0
DWIDTH 5 0
BBX 4 2 1 4
BITMAP
F0
F0
ENDCHAR
STARTCHAR 2011
ENCODING 8209
SWIDTH 257 0
DWIDTH 5 0
BBX 4 2 1 4
BITMAP
F0
F0
ENDCHAR
STARTCHAR 2013
ENCODING 8211
SWIDTH 462 0
DWIDTH 9 0
BBX 8 2 0 4
BITMAP
FF
FF
ENDCHAR
STARTCHAR 2014
ENCODING 8212
SWIDTH 822 0
DWIDTH 16 0
BBX 16 2 0 4
BITMAP
FFFF
FFFF
ENDCHAR
STARTCHAR 2015
ENCODING 8213
SWIDTH 822 0
DWIDTH 16 0
BBX 16 2 0 4
BITMAP
FFFF
FFFF
ENDCHAR
STARTCHAR 2017
ENCODING 8215
SWIDTH 514 0
DWIDTH 10 0
BBX 9 3 0 -4
BITMAP
FF80
0000
FF80
ENDCHAR
STARTCHAR 2018
ENCODING 8216
SWIDTH 205 0
DWIDTH 4 0
BBX 2 5 1 8
BITMAP
40
C0
80
C0
C0
ENDCHAR
STARTCHAR 2019
ENCODING 8217
SWIDTH 205 0
DWIDTH 4 0
BBX 2 5 1 8
BITMAP
C0
C0
40
40
C0
ENDCHAR
STARTCHAR 201A
ENCODING 8218
SWIDTH 205 0
DWIDTH 4 0
BBX 2 5 1 -3
BITMAP
C0
C0
40
40
C0
ENDCHAR
STARTCHAR 201B
ENCODING 8219
SWIDTH 205 0
DWIDTH 4 0
BBX 2 5 1 8
BITMAP
C0
C0
80
C0
40
ENDCHAR
STARTCHAR 201C
ENCODING 8220
SWIDTH 411 0
DWIDTH 8 0
BBX 6 5 1 8
BITMAP
48
C8
98
DC
DC
ENDCHAR
STARTCHAR 201D
ENCODING 8221
SWIDTH 411 0
DWIDTH 8 0
BBX 6 5 1 8
BITMAP
DC
DC
4C
48
C8
ENDCHAR
STARTCHAR 201E
ENCODING 8222
SWIDTH 411 0
DWIDTH 8 0
BBX 6 5 1 -3
BITMAP
DC
DC
4C
48
C8
ENDCHAR
STARTCHAR 2020
ENCODING 8224
SWIDTH 462 0
DWIDTH 9 0
BBX 7 15 1 -1
BITMAP
30
30
10
FE
FE
10
10
10
10
10
10
10
10
10
10
ENDCHAR
STARTCHAR 2021
ENCODING 8225
SWIDTH 462 0
DWIDTH 9 0
BBX 7 15 1 -1
BITMAP
10
10
10
FE
FE
10
10
10
10
10
FE
FE
10
10
10
ENDCHAR
STARTCHAR 2022
ENCODING 8226
SWIDTH 257 0
DWIDTH 5 0
BBX 5 5 0 4
BITMAP
70
78
F8
78
70
ENDCHAR
STARTCHAR 2026
ENCODING 8230
SWIDTH 822 0
DWIDTH 16 0
BBX 12 3 2 0
BITMAP
C630
C630
C630
ENDCHAR
STARTCHAR 2030
ENCODING 8240
SWIDTH 822 0
DWIDTH 16 0
BBX 15 13 0 0
BITMAP
7180
5100
DB00
DA00
DE00
5400
758C
0E52
0A52
1A52
1252
3252
218C
ENDCHAR
STARTCHAR 2032
ENCODING 8242
SWIDTH 205 0
DWIDTH 4 0
BBX 2 5 1 8
BITMAP
C0
C0
C0
C0
80
ENDCHAR
STARTCHAR 2033
ENCODING 8243
SWIDTH 360 0
DWIDTH 7 0
BBX 7 5 1 8
BITMAP
C6
C6
CC
CC
8C
ENDCHAR
STARTCHAR 2039
ENCODING 8249
SWIDTH 257 0
DWIDTH 5 0
BBX 3 8 1 1
BITMAP
20
60
C0
C0
C0
C0
60
20
ENDCHAR
STARTCHAR 203A
ENCODING 8250
SWIDTH 257 0
DWIDTH 5 0
BBX 3 8 1 1
BITMAP
C0
C0
60
60
60
60
C0
C0
ENDCHAR
STARTCHAR 203C
ENCODING 8252
SWIDTH 514 0
DWIDTH 10 0
BBX 8 13 1 0
BITMAP
E3
63
63
63
63
63
63
43
43
00
E3
E3
E3
ENDCHAR
STARTCHAR 203E
ENCODING 8254
SWIDTH 257 0
DWIDTH 5 0
BBX 7 2 -1 13
BITMAP
FE
FE
ENDCHAR
STARTCHAR 2044
ENCODING 8260
SWIDTH 154 0
DWIDTH 3 0
BBX 8 13 -3 0
BITMAP
01
03
02
06
04
0C
08
18
30
20
60
40
C0
ENDCHAR
STARTCHAR 207F
ENCODING 8319
SWIDTH 308 0
DWIDTH 6 0
BBX 4 6 1 5
BITMAP
F0
90
90
90
90
90
ENDCHAR
STARTCHAR 20A3
ENCODING 8355
SWIDTH 514 0
DWIDTH 10 0
BBX 9 13 0 0
BITMAP
7F80
7F80
7000
7000
7000
7000
7F80
7F80
7000
FC00
7000
7000
7000
ENDCHAR
STARTCHAR 20A4
ENCODING 8356
SWIDTH 462 0
DWIDTH 9 0
BBX 8 13 0 0
BITMAP
1E
3E
33
30
20
FC
20
FC
20
61
63
FF
FE
ENDCHAR
STARTCHAR 20A7
ENCODING 8359
SWIDTH 925 0
DWIDTH 18 0
BBX 17 13 1 0
BITMAP
F80000
FC0000
C60000
C60000
C68000
C7CF00
FDDF00
F99980
C19E00
C18F00
C19180
C0FF00
C0FF00
ENDCHAR
STARTCHAR 20AC
ENCODING 8364
SWIDTH 462 0
DWIDTH 9 0
BBX 8 13 0 0
BITMAP
1E
3F
33
62
60
FC
60
FC
60
63
33
3F
1E
ENDCHAR
STARTCHAR 2105
ENCODING 8453
SWIDTH 771 0
DWIDTH 15 0
BBX 15 13 0 0
BITMAP
3830
6C20
4060
C0C0
C0C0
45B8
6D6C
7F64
3E66
0666
0C66
0864
1838
ENDCHAR
STARTCHAR 2113
ENCODING 8467
SWIDTH 462 0
DWIDTH 9 0
BBX 9 13 0 0
BITMAP
1E00
3F00
3380
3380
3300
3700
3E00
F800
F000
3000
3100
3F00
1E00
ENDCHAR
STARTCHAR 2116
ENCODING 8470
SWIDTH 874 0
DWIDTH 17 0
BBX 16 13 1 0
BITMAP
E180
E180
F180
F180
D99E
D992
CDB3
CDB3
C792
C79E
C380
C39E
C19E
ENDCHAR
STARTCHAR 2122
ENCODING 8482
SWIDTH 822 0
DWIDTH 16 0
BBX 13 5 1 8
BITMAP
FB18
2338
22B8
22D8
2258
ENDCHAR
STARTCHAR 2126
ENCODING 8486
SWIDTH 617 0
DWIDTH 12 0
BBX 11 13 1 0
BITMAP
1F00
7F80
71C0
E0C0
C0E0
C0E0
C0E0
C0C0
60C0
7180
3B00
FBE0
FBE0
ENDCHAR
STARTCHAR 212E
ENCODING 8494
SWIDTH 565 0
DWIDTH 11 0
BBX 10 10 1 0
BITMAP
3E00
6100
C180
C180
FFC0
C000
C000
C080
6100
3E00
ENDCHAR
STARTCHAR 215B
ENCODING 8539
SWIDTH 668 0
DWIDTH 13 0
BBX 13 13 1 0
BITMAP
6060
E040
60C0
6080
6180
6100
F370
0258
0658
0C70
08D8
18D8
1070
ENDCHAR
STARTCHAR 215C
ENCODING 8540
SWIDTH 668 0
DWIDTH 13 0
BBX 13 13 1 0
BITMAP
7060
90C0
1080
6180
1100
9300
F270
0658
0458
0C70
08D8
18D8
1070
ENDCHAR
STARTCHAR 215D
ENCODING 8541
SWIDTH 668 0
DWIDTH 13 0
BBX 13 13 1 0
BITMAP
F060
80C0
F080
D180
1100
9300
7270
0658
0458
0C70
08D8
18D8
1070
ENDCHAR
STARTCHAR 215E
ENCODING 8542
SWIDTH 668 0
DWIDTH 13 0
BBX 13 13 1 0
BITMAP
F840
10C0
1080
2180
2100
2300
0270
0658
0458
0C70
08D8
18D8
1070
ENDCHAR
STARTCHAR 2190
ENCODING 8592
SWIDTH 977 0
DWIDTH 19 0
BBX 11 5 4 1
BITMAP
2000
4000
FFE0
4000
2000
ENDCHAR
STARTCHAR 2191
ENCODING 8593
SWIDTH 514 0
DWIDTH 10 0
BBX 4 12 3 -1
BITMAP
40
60
F0
40
40
40
40
40
40
40
40
40
ENDCHAR
STARTCHAR 2192
ENCODING 8594
SWIDTH 977 0
DWIDTH 19 0
BBX 11 5 4 1
BITMAP
0080
0040
FFE0
0040
0080
ENDCHAR
STARTCHAR 2193
ENCODING 8595
SWIDTH 514 0
DWIDTH 10 0
BBX 3 11 3 -1
BITMAP
40
40
40
40
40
40
40
40
40
E0
60
ENDCHAR
STARTCHAR 2194
ENCODING 8596
SWIDTH 977 0
DWIDTH 19 0
BBX 11 5 4 1
BITMAP
2080
4040
FFE0
4040
2080
ENDCHAR
STARTCHAR 2195
ENCODING 8597
SWIDTH 514 0
DWIDTH 10 0
BBX 4 11 3 -1
BITMAP
40
60
F0
40
40
40
40
40
40
E0
60
ENDCHAR
STARTCHAR 21A8
ENCODING 8616
SWIDTH 514 0
DWIDTH 10 0
BBX 4 13 3 -2
BITMAP
40
60
F0
40
40
40
40
40
40
E0
60
00
F0
ENDCHAR
STARTCHAR 2202
ENCODING 8706
SWIDTH 462 0
DWIDTH 9 0
BBX 9 14 0 0
BITMAP
1E00
1F00
0300
0380
1D80
3D80
7380
6380
6300
6300
E300
6600
7E00
3C00
ENDCHAR
STARTCHAR 2206
ENCODING 8710
SWIDTH 617 0
DWIDTH 12 0
BBX 11 13 0 0
BITMAP
0F00
0F00
1F00
1B80
1980
3980
31C0
31C0
70C0
70E0
60E0
FFE0
FFE0
ENDCHAR
STARTCHAR 220F
ENCODING 8719
SWIDTH 822 0
DWIDTH 16 0
BBX 12 17 2 -4
BITMAP
FFF0
FFF0
E070
E070
E070
E070
E070
E070
E070
E070
E070
E070
E070
E070
E070
E070
E070
ENDCHAR
STARTCHAR 2211
ENCODING 8721
SWIDTH 720 0
DWIDTH 14 0
BBX 12 17 1 -4
BITMAP
FFE0
7FE0
7000
3800
1C00
0E00
0E00
0700
0380
0700
0E00
0C00
1C00
3800
7000
FFF0
FFF0
ENDCHAR
STARTCHAR 2212
ENCODING 8722
SWIDTH 462 0
DWIDTH 9 0
BBX 7 2 1 5
BITMAP
FE
FE
ENDCHAR
STARTCHAR 2215
ENCODING 8725
SWIDTH 154 0
DWIDTH 3 0
BBX 8 13 -3 0
BITMAP
01
03
02
06
04
0C
08
18
30
20
60
40
C0
ENDCHAR
STARTCHAR 2219
ENCODING 8729
SWIDTH 257 0
DWIDTH 5 0
BBX 3 3 1 5
BITMAP
E0
E0
E0
ENDCHAR
STARTCHAR 221A
ENCODING 8730
SWIDTH 514 0
DWIDTH 10 0
BBX 10 15 0 0
BITMAP
0040
00C0
00C0
0080
0180
0180
E100
E300
3300
3300
1200
1E00
1E00
0C00
0C00
ENDCHAR
STARTCHAR 221E
ENCODING 8734
SWIDTH 720 0
DWIDTH 14 0
BBX 12 7 1 2
BITMAP
71C0
FBE0
CF30
8630
CE30
FBE0
71E0
ENDCHAR
STARTCHAR 221F
ENCODING 8735
SWIDTH 977 0
DWIDTH 19 0
BBX 11 11 4 0
BITMAP
8000
8000
8000
8000
8000
8000
8000
8000
8000
8000
FFE0
ENDCHAR
STARTCHAR 2229
ENCODING 8745
SWIDTH 720 0
DWIDTH 14 0
BBX 8 10 3 0
BITMAP
3C
42
81
81
81
81
81
81
81
81
ENDCHAR
STARTCHAR 222B
ENCODING 8747
SWIDTH 257 0
DWIDTH 5 0
BBX 8 18 -1 -4
BITMAP
0F
1F
38
38
38
38
38
38
38
38
38
38
38
38
38
38
F0
E0
ENDCHAR
STARTCHAR 2248
ENCODING 8776
SWIDTH 514 0
DWIDTH 10 0
BBX 10 7 0 3
BITMAP
7C00
FFC0
87C0
0000
7800
FFC0
87C0
ENDCHAR
STARTCHAR 2260
ENCODING 8800
SWIDTH 514 0
DWIDTH 10 0
BBX 10 11 0 1
BITMAP
0180
0300
FFC0
FFC0
0600
0C00
0C00
FFC0
FFC0
3000
6000
ENDCHAR
STARTCHAR 2261
ENCODING 8801
SWIDTH 462 0
DWIDTH 9 0
BBX 7 8 1 2
BITMAP
FE
00
00
FE
00
00
00
FE
ENDCHAR
STARTCHAR 2264
ENCODING 8804
SWIDTH 514 0
DWIDTH 10 0
BBX 10 12 0 0
BITMAP
00C0
07C0
3F80
FC00
E000
F800
3F00
0FC0
01C0
0000
FFC0
FFC0
ENDCHAR
STARTCHAR 2265
ENCODING 8805
SWIDTH 514 0
DWIDTH 10 0
BBX 10 12 0 0
BITMAP
C000
F800
3F00
07C0
00C0
03C0
1F80
FC00
E000
0000
FFC0
FFC0
ENDCHAR
STARTCHAR 2302
ENCODING 8962
SWIDTH 565 0
DWIDTH 11 0
BBX 9 11 1 0
BITMAP
0800
0C00
1200
2300
4180
8080
8080
8080
8080
8080
FF80
ENDCHAR
STARTCHAR 2310
ENCODING 8976
SWIDTH 462 0
DWIDTH 9 0
BBX 7 5 1 2
BITMAP
FE
80
80
80
80
ENDCHAR
STARTCHAR 2320
ENCODING 8992
SWIDTH 565 0
DWIDTH 11 0
BBX 4 22 5 -6
BITMAP
70
80
80
80
80
80
80
80
80
80
80
80
80
80
80
80
80
80
80
80
80
80
ENDCHAR
STARTCHAR 2321
ENCODING 8993
SWIDTH 565 0
DWIDTH 11 0
BBX 4 21 2 -6
BITMAP
10
10
10
10
10
10
10
10
10
10
10
10
10
10
10
10
10
10
10
10
E0
ENDCHAR
STARTCHAR 2500
ENCODING 9472
SWIDTH 668 0
DWIDTH 13 0
BBX 14 1 0 5
BITMAP
FFFC
ENDCHAR
STARTCHAR 2502
ENCODING 9474
SWIDTH 617 0
DWIDTH 12 0
BBX 2 23 4 -6
BITMAP
C0
C0
C0
C0
C0
C0
C0
C0
C0
C0
C0
C0
C0
C0
C0
C0
C0
C0
C0
C0
C0
C0
C0
ENDCHAR
STARTCHAR 250C
ENCODING 9484
SWIDTH 668 0
DWIDTH 13 0
BBX 8 12 6 -6
BITMAP
FF
80
80
80
80
80
80
80
80
80
80
80
ENDCHAR
STARTCHAR 2510
ENCODING 9488
SWIDTH 668 0
DWIDTH 13 0
BBX 7 12 0 -6
BITMAP
FE
02
02
02
02
02
02
02
02
02
02
02
ENDCHAR
STARTCHAR 2514
ENCODING 9492
SWIDTH 668 0
DWIDTH 13 0
BBX 8 12 6 5
BITMAP
80
80
80
80
80
80
80
80
80
80
80
FF
ENDCHAR
STARTCHAR 2518
ENCODING 9496
SWIDTH 668 0
DWIDTH 13 0
BBX 7 12 0 5
BITMAP
02
02
02
02
02
02
02
02
02
02
02
FE
ENDCHAR
STARTCHAR 251C
ENCODING 9500
SWIDTH 668 0
DWIDTH 13 0
BBX 8 23 6 -6
BITMAP
80
80
80
80
80
80
80
80
80
80
80
FF
80
80
80
80
80
80
80
80
80
80
80
ENDCHAR
STARTCHAR 2524
ENCODING 9508
SWIDTH 668 0
DWIDTH 13 0
BBX 7 23 0 -6
BITMAP
02
02
02
02
02
02
02
02
02
02
02
FE
02
02
02
02
02
02
02
02
02
02
02
ENDCHAR
STARTCHAR 252C
ENCODING 9516
SWIDTH 668 0
DWIDTH 13 0
BBX 14 12 0 -6
BITMAP
FFFC
0200
0200
0200
0200
0200
0200
0200
0200
0200
0200
0200
ENDCHAR
STARTCHAR 2534
ENCODING 9524
SWIDTH 668 0
DWIDTH 13 0
BBX 14 12 0 5
BITMAP
0200
0200
0200
0200
0200
0200
0200
0200
0200
0200
0200
FFFC
ENDCHAR
STARTCHAR 253C
ENCODING 9532
SWIDTH 668 0
DWIDTH 13 0
BBX 14 23 0 -6
BITMAP
0200
0200
0200
0200
0200
0200
0200
0200
0200
0200
0200
FFFC
0200
0200
0200
0200
0200
0200
0200
0200
0200
0200
0200
ENDCHAR
STARTCHAR 2550
ENCODING 9552
SWIDTH 668 0
DWIDTH 13 0
BBX 14 5 0 3
BITMAP
FFFC
0000
0000
0000
FFFC
ENDCHAR
STARTCHAR 2551
ENCODING 9553
SWIDTH 668 0
DWIDTH 13 0
BBX 5 23 4 -6
BITMAP
C8
C8
C8
C8
C8
C8
C8
C8
C8
C8
C8
C8
C8
C8
C8
C8
C8
C8
C8
C8
C8
C8
C8
ENDCHAR
STARTCHAR 2552
ENCODING 9554
SWIDTH 668 0
DWIDTH 13 0
BBX 8 14 6 -6
BITMAP
FF
80
80
80
FF
80
80
80
80
80
80
80
80
80
ENDCHAR
STARTCHAR 2553
ENCODING 9555
SWIDTH 668 0
DWIDTH 13 0
BBX 10 12 4 -6
BITMAP
FFC0
C800
C800
C800
C800
C800
C800
C800
C800
C800
C800
C800
ENDCHAR
STARTCHAR 2554
ENCODING 9556
SWIDTH 668 0
DWIDTH 13 0
BBX 10 14 4 -6
BITMAP
FFC0
C000
C000
C000
CFC0
C800
C800
C800
C800
C800
C800
C800
C800
C800
ENDCHAR
STARTCHAR 2555
ENCODING 9557
SWIDTH 668 0
DWIDTH 13 0
BBX 7 14 0 -6
BITMAP
FE
02
02
02
FE
02
02
02
02
02
02
02
02
02
ENDCHAR
STARTCHAR 2556
ENCODING 9558
SWIDTH 668 0
DWIDTH 13 0
BBX 9 12 0 -6
BITMAP
FF80
0C80
0C80
0C80
0C80
0C80
0C80
0C80
0C80
0C80
0C80
0C80
ENDCHAR
STARTCHAR 2557
ENCODING 9559
SWIDTH 668 0
DWIDTH 13 0
BBX 9 14 0 -6
BITMAP
FF80
0080
0080
0080
FC80
0C80
0C80
0C80
0C80
0C80
0C80
0C80
0C80
0C80
ENDCHAR
STARTCHAR 2558
ENCODING 9560
SWIDTH 668 0
DWIDTH 13 0
BBX 8 14 6 3
BITMAP
80
80
80
80
80
80
80
80
80
FF
80
80
80
FF
ENDCHAR
STARTCHAR 2559
ENCODING 9561
SWIDTH 668 0
DWIDTH 13 0
BBX 10 12 4 5
BITMAP
C800
C800
C800
C800
C800
C800
C800
C800
C800
C800
C800
FFC0
ENDCHAR
STARTCHAR 255A
ENCODING 9562
SWIDTH 668 0
DWIDTH 13 0
BBX 10 14 4 3
BITMAP
C800
C800
C800
C800
C800
C800
C800
C800
C800
CFC0
C000
C000
C000
FFC0
ENDCHAR
STARTCHAR 255B
ENCODING 9563
SWIDTH 668 0
DWIDTH 13 0
BBX 7 14 0 3
BITMAP
02
02
02
02
02
02
02
02
02
FE
02
02
02
FE
ENDCHAR
STARTCHAR 255C
ENCODING 9564
SWIDTH 668 0
DWIDTH 13 0
BBX 9 12 0 5
BITMAP
0C80
0C80
0C80
0C80
0C80
0C80
0C80
0C80
0C80
0C80
0C80
FF80
ENDCHAR
STARTCHAR 255D
ENCODING 9565
SWIDTH 668 0
DWIDTH 13 0
BBX 9 14 0 3
BITMAP
0C80
0C80
0C80
0C80
0C80
0C80
0C80
0C80
0C80
FC80
0080
0080
0080
FF80
ENDCHAR
STARTCHAR 255E
ENCODING 9566
SWIDTH 668 0
DWIDTH 13 0
BBX 8 23 6 -6
BITMAP
80
80
80
80
80
80
80
80
80
FF
80
80
80
FF
80
80
80
80
80
80
80
80
80
ENDCHAR
STARTCHAR 255F
ENCODING 9567
SWIDTH 668 0
DWIDTH 13 0
BBX 10 23 4 -6
BITMAP
C800
C800
C800
C800
C800
C800
C800
C800
C800
C800
C800
CFC0
C800
C800
C800
C800
C800
C800
C800
C800
C800
C800
C800
ENDCHAR
STARTCHAR 2560
ENCODING 9568
SWIDTH 668 0
DWIDTH 13 0
BBX 10 23 4 -6
BITMAP
C800
C800
C800
C800
C800
C800
C800
C800
C800
CFC0
C000
C000
C000
CFC0
C800
C800
C800
C800
C800
C800
C800
C800
C800
ENDCHAR
STARTCHAR 2561
ENCODING 9569
SWIDTH 668 0
DWIDTH 13 0
BBX 7 23 0 -6
BITMAP
02
02
02
02
02
02
02
02
02
FE
02
02
02
FE
02
02
02
02
02
02
02
02
02
ENDCHAR
STARTCHAR 2562
ENCODING 9570
SWIDTH 668 0
DWIDTH 13 0
BBX 9 23 0 -6
BITMAP
0C80
0C80
0C80
0C80
0C80
0C80
0C80
0C80
0C80
0C80
0C80
FC80
0C80
0C80
0C80
0C80
0C80
0C80
0C80
0C80
0C80
0C80
0C80
ENDCHAR
STARTCHAR 2563
ENCODING 9571
SWIDTH 668 0
DWIDTH 13 0
BBX 9 23 0 -6
BITMAP
0C80
0C80
0C80
0C80
0C80
0C80
0C80
0C80
0C80
FC80
0080
0080
0080
FC80
0C80
0C80
0C80
0C80
0C80
0C80
0C80
0C80
0C80
ENDCHAR
STARTCHAR 2564
ENCODING 9572
SWIDTH 668 0
DWIDTH 13 0
BBX 14 14 0 -6
BITMAP
FFFC
0000
0000
0000
FFFC
0200
0200
0200
0200
0200
0200
0200
0200
0200
ENDCHAR
STARTCHAR 2565
ENCODING 9573
SWIDTH 668 0
DWIDTH 13 0
BBX 14 12 0 -6
BITMAP
FFFC
0C80
0C80
0C80
0C80
0C80
0C80
0C80
0C80
0C80
0C80
0C80
ENDCHAR
STARTCHAR 2566
ENCODING 9574
SWIDTH 668 0
DWIDTH 13 0
BBX 14 14 0 -6
BITMAP
FFFC
0000
0000
0000
FCFC
0C80
0C80
0C80
0C80
0C80
0C80
0C80
0C80
0C80
ENDCHAR
STARTCHAR 2567
ENCODING 9575
SWIDTH 668 0
DWIDTH 13 0
BBX 14 14 0 3
BITMAP
0200
0200
0200
0200
0200
0200
0200
0200
0200
FFFC
0000
0000
0000
FFFC
ENDCHAR
STARTCHAR 2568
ENCODING 9576
SWIDTH 668 0
DWIDTH 13 0
BBX 14 12 0 5
BITMAP
0C80
0C80
0C80
0C80
0C80
0C80
0C80
0C80
0C80
0C80
0C80
FFFC
ENDCHAR
STARTCHAR 2569
ENCODING 9577
SWIDTH 668 0
DWIDTH 13 0
BBX 14 14 0 3
BITMAP
0C80
0C80
0C80
0C80
0C80
0C80
0C80
0C80
0C80
FCFC
0000
0000
0000
FFFC
ENDCHAR
STARTCHAR 256A
ENCODING 9578
SWIDTH 668 0
DWIDTH 13 0
BBX 14 23 0 -6
BITMAP
0200
0200
0200
0200
0200
0200
0200
0200
0200
FFFC
0200
0200
0200
FFFC
0200
0200
0200
0200
0200
0200
0200
0200
0200
ENDCHAR
STARTCHAR 256B
ENCODING 9579
SWIDTH 668 0
DWIDTH 13 0
BBX 14 23 0 -6
BITMAP
0C80
0C80
0C80
0C80
0C80
0C80
0C80
0C80
0C80
0C80
0C80
FFFC
0C80
0C80
0C80
0C80
0C80
0C80
0C80
0C80
0C80
0C80
0C80
ENDCHAR
STARTCHAR 256C
ENCODING 9580
SWIDTH 668 0
DWIDTH 13 0
BBX 14 23 0 -6
BITMAP
0C80
0C80
0C80
0C80
0C80
0C80
0C80
0C80
0C80
FCFC
0000
0000
0000
FCFC
0C80
0C80
0C80
0C80
0C80
0C80
0C80
0C80
0C80
ENDCHAR
STARTCHAR 2580
ENCODING 9600
SWIDTH 668 0
DWIDTH 13 0
BBX 13 12 0 6
BITMAP
FFF8
FFF8
FFF8
FFF8
FFF8
FFF8
FFF8
FFF8
FFF8
FFF8
FFF8
FFF8
ENDCHAR
STARTCHAR 2584
ENCODING 9604
SWIDTH 668 0
DWIDTH 13 0
BBX 13 12 0 -6
BITMAP
FFF8
FFF8
FFF8
FFF8
FFF8
FFF8
FFF8
FFF8
FFF8
FFF8
FFF8
FFF8
ENDCHAR
STARTCHAR 2588
ENCODING 9608
SWIDTH 668 0
DWIDTH 13 0
BBX 13 23 0 -6
BITMAP
FFF8
FFF8
FFF8
FFF8
FFF8
FFF8
FFF8
FFF8
FFF8
FFF8
FFF8
FFF8
FFF8
FFF8
FFF8
FFF8
FFF8
FFF8
FFF8
FFF8
FFF8
FFF8
FFF8
ENDCHAR
STARTCHAR 258C
ENCODING 9612
SWIDTH 668 0
DWIDTH 13 0
BBX 7 23 0 -6
BITMAP
FE
FE
FE
FE
FE
FE
FE
FE
FE
FE
FE
FE
FE
FE
FE
FE
FE
FE
FE
FE
FE
FE
FE
ENDCHAR
STARTCHAR 2590
ENCODING 9616
SWIDTH 668 0
DWIDTH 13 0
BBX 6 23 7 -6
BITMAP
FC
FC
FC
FC
FC
FC
FC
FC
FC
FC
FC
FC
FC
FC
FC
FC
FC
FC
FC
FC
FC
FC
FC
ENDCHAR
STARTCHAR 2591
ENCODING 9617
SWIDTH 668 0
DWIDTH 13 0
BBX 12 21 1 -5
BITMAP
8890
0000
2220
0000
8890
0000
2220
8890
0000
2220
0000
8890
0000
2220
8890
0000
2220
0000
8890
0000
2220
ENDCHAR
STARTCHAR 2592
ENCODING 9618
SWIDTH 668 0
DWIDTH 13 0
BBX 13 21 0 -5
BITMAP
5558
0000
AAA8
0000
5558
0000
AAA8
5558
0000
AAA8
0000
5558
0000
AAA8
5558
0000
AAA8
0000
5558
0000
AAA8
ENDCHAR
STARTCHAR 2593
ENCODING 9619
SWIDTH 720 0
DWIDTH 14 0
BBX 14 22 0 -6
BITMAP
5554
FFFC
AAA8
FFFC
FFFC
FFFC
FFFC
5554
FFFC
AAA8
FFFC
FFFC
FFFC
FFFC
5554
FFFC
AAA8
FFFC
5554
FFFC
AAA8
FFFC
ENDCHAR
STARTCHAR 25A0
ENCODING 9632
SWIDTH 565 0
DWIDTH 11 0
BBX 9 9 1 1
BITMAP
FF80
FF80
FF80
FF80
FF80
FF80
FF80
FF80
FF80
ENDCHAR
STARTCHAR 25A1
ENCODING 9633
SWIDTH 565 0
DWIDTH 11 0
BBX 11 12 0 0
BITMAP
FFE0
8020
8020
8020
8020
8020
8020
8020
8020
8020
8020
FFE0
ENDCHAR
STARTCHAR 25AA
ENCODING 9642
SWIDTH 360 0
DWIDTH 7 0
BBX 5 5 1 4
BITMAP
F8
F8
F8
F8
F8
ENDCHAR
STARTCHAR 25AB
ENCODING 9643
SWIDTH 360 0
DWIDTH 7 0
BBX 5 5 1 4
BITMAP
F8
88
88
88
F8
ENDCHAR
STARTCHAR 25AC
ENCODING 9644
SWIDTH 977 0
DWIDTH 19 0
BBX 19 6 0 0
BITMAP
FFFFE0
FFFFE0
FFFFE0
FFFFE0
FFFFE0
FFFFE0
ENDCHAR
STARTCHAR 25B2
ENCODING 9650
SWIDTH 977 0
DWIDTH 19 0
BBX 11 11 4 0
BITMAP
0400
0400
0E00
0E00
1F00
1F00
3F80
3F80
7FC0
7FC0
FFE0
ENDCHAR
STARTCHAR 25BA
ENCODING 9658
SWIDTH 977 0
DWIDTH 19 0
BBX 11 11 4 0
BITMAP
8000
E000
F800
FE00
FF80
FFE0
FF80
FE00
F800
E000
8000
ENDCHAR
STARTCHAR 25BC
ENCODING 9660
SWIDTH 977 0
DWIDTH 19 0
BBX 11 11 4 0
BITMAP
FFE0
7FC0
7FC0
3F80
3F80
1F00
1F00
0E00
0E00
0400
0400
ENDCHAR
STARTCHAR 25C4
ENCODING 9668
SWIDTH 977 0
DWIDTH 19 0
BBX 11 11 4 0
BITMAP
0020
00E0
03E0
0FE0
3FE0
FFE0
3FE0
0FE0
03E0
00E0
0020
ENDCHAR
STARTCHAR 25CA
ENCODING 9674
SWIDTH 462 0
DWIDTH 9 0
BBX 9 13 0 0
BITMAP
0C00
1C00
3600
3300
6300
4180
C180
6180
6300
3600
1E00
1C00
0800
ENDCHAR
STARTCHAR 25CB
ENCODING 9675
SWIDTH 565 0
DWIDTH 11 0
BBX 8 8 2 2
BITMAP
3C
C2
81
81
81
81
C2
3C
ENDCHAR
STARTCHAR 25CF
ENCODING 9679
SWIDTH 565 0
DWIDTH 11 0
BBX 8 8 2 1
BITMAP
3C
7E
FF
FF
FF
FF
7E
3C
ENDCHAR
STARTCHAR 25D8
ENCODING 9688
SWIDTH 565 0
DWIDTH 11 0
BBX 11 10 0 0
BITMAP
FFE0
F0E0
E060
C020
C020
C020
C020
E060
F0E0
FFE0
ENDCHAR
STARTCHAR 25D9
ENCODING 9689
SWIDTH 565 0
DWIDTH 11 0
BBX 11 10 0 0
BITMAP
FFE0
FEE0
DFE0
FFA0
FFA0
FFA0
DFE0
EE60
F0E0
FFE0
ENDCHAR
STARTCHAR 25E6
ENCODING 9702
SWIDTH 360 0
DWIDTH 7 0
BBX 5 5 1 4
BITMAP
70
90
88
90
70
ENDCHAR
STARTCHAR 263A
ENCODING 9786
SWIDTH 977 0
DWIDTH 19 0
BBX 11 11 4 0
BITMAP
1F00
20C0
4040
8020
91A0
8020
8020
9120
4E40
20C0
1F00
ENDCHAR
STARTCHAR 263B
ENCODING 9787
SWIDTH 1028 0
DWIDTH 20 0
BBX 12 11 4 0
BITMAP
0F00
3FC0
7FE0
7FE0
E670
FFF0
FFF0
6F60
70E0
3FC0
0F00
ENDCHAR
STARTCHAR 263C
ENCODING 9788
SWIDTH 874 0
DWIDTH 17 0
BBX 11 11 3 -1
BITMAP
0400
4440
2F80
1080
2080
E060
2080
2080
3980
4640
0400
ENDCHAR
STARTCHAR 2640
ENCODING 9792
SWIDTH 720 0
DWIDTH 14 0
BBX 6 10 4 1
BITMAP
38
48
84
84
48
30
20
FC
20
20
ENDCHAR
STARTCHAR 2642
ENCODING 9794
SWIDTH 720 0
DWIDTH 14 0
BBX 8 9 3 2
BITMAP
05
03
05
78
88
88
88
88
70
ENDCHAR
STARTCHAR 2660
ENCODING 9824
SWIDTH 514 0
DWIDTH 10 0
BBX 9 11 1 1
BITMAP
1800
1800
3C00
7E00
FF00
FF80
FF00
7700
1800
3C00
FF00
ENDCHAR
STARTCHAR 2663
ENCODING 9827
SWIDTH 617 0
DWIDTH 12 0
BBX 11 11 1 0
BITMAP
0E00
1F00
1F00
FFC0
FFE0
FFE0
FBE0
75C0
0C00
1E00
7F80
ENDCHAR
STARTCHAR 2665
ENCODING 9829
SWIDTH 565 0
DWIDTH 11 0
BBX 9 11 1 0
BITMAP
6300
F780
FF80
FF80
7F80
7F00
3E00
1E00
1C00
0800
0800
ENDCHAR
STARTCHAR 2666
ENCODING 9830
SWIDTH 514 0
DWIDTH 10 0
BBX 8 11 1 0
BITMAP
10
18
3C
7C
FE
FF
FE
7C
3C
18
10
ENDCHAR
STARTCHAR 266A
ENCODING 9834
SWIDTH 514 0
DWIDTH 10 0
BBX 6 10 2 1
BITMAP
20
10
18
28
24
24
28
E8
E0
C0
ENDCHAR
STARTCHAR 266B
ENCODING 9835
SWIDTH 720 0
DWIDTH 14 0
BBX 9 11 3 0
BITMAP
0180
0F80
3880
2780
3C80
2080
2080
2380
E780
E700
C000
ENDCHAR
STARTCHAR F001
ENCODING 61441
SWIDTH 514 0
DWIDTH 10 0
BBX 8 14 0 0
BITMAP
3B
3B
70
70
FB
FB
73
73
73
73
73
73
73
73
ENDCHAR
STARTCHAR F002
ENCODING 61442
SWIDTH 514 0
DWIDTH 10 0
BBX 8 14 0 0
BITMAP
3B
3B
73
73
FB
FB
73
73
73
73
73
73
73
73
ENDCHAR
STARTCHAR F005
ENCODING 61445
SWIDTH 257 0
DWIDTH 5 0
BBX 3 3 1 -4
BITMAP
60
20
E0
ENDCHAR
STARTCHAR FB01
ENCODING 64257
SWIDTH 514 0
DWIDTH 10 0
BBX 8 14 0 0
BITMAP
3B
3B
70
70
FB
FB
73
73
73
73
73
73
73
73
ENDCHAR
STARTCHAR FB02
ENCODING 64258
SWIDTH 514 0
DWIDTH 10 0
BBX 8 14 0 0
BITMAP
3B
3B
73
73
FB
FB
73
73
73
73
73
73
73
73
ENDCHAR
ENDFONT
